<svg width="18" height="18" viewBox="0 0 18 18" fill="none" xmlns="http://www.w3.org/2000/svg">
<path d="M14.4247 6.04864L14.4774 6.02052C14.7587 5.84122 14.9274 5.53536 14.9309 5.19962C14.9327 4.85333 14.7604 4.52989 14.4686 4.33829L9.59947 1.95997C9.28307 1.76662 8.8858 1.76134 8.5694 1.94591L3.83736 4.16603L3.78463 4.19415C3.50338 4.37345 3.33463 4.67931 3.33111 5.01681C3.32936 5.3631 3.50162 5.68653 3.79518 5.87814L8.66256 8.2547C8.82604 8.35313 9.00885 8.40411 9.19166 8.40411C9.36568 8.40411 9.53795 8.35841 9.69264 8.26876L14.4247 6.04864V6.04864ZM9.21979 7.46192C9.20045 7.47423 9.17233 7.47071 9.14772 7.45489L4.2944 5.08536C4.27154 5.06427 4.26803 5.0379 4.26803 5.02384C4.26803 5.00978 4.27154 4.99923 4.27682 4.99396L8.98951 2.78263L9.04225 2.7545C9.06158 2.7422 9.08971 2.74572 9.11432 2.76154L13.9676 5.13107C13.9905 5.15216 13.994 5.17853 13.994 5.19259C13.994 5.20665 13.9905 5.2172 13.9852 5.22247L9.27252 7.43204L9.21979 7.46192ZM14.9028 6.60235C14.5794 6.41603 14.1926 6.41954 13.8938 6.59708L9.7735 8.72052C9.4483 8.91212 9.2444 9.27247 9.24264 9.66094L9.20924 15.0469C9.20748 15.4459 9.4149 15.815 9.7524 16.0084C9.91236 16.0998 10.0881 16.1473 10.2639 16.1473C10.4327 16.1473 10.6032 16.1051 10.7579 16.0189L14.8325 14.2295L14.8817 14.2031C15.2069 14.0115 15.4108 13.6512 15.4126 13.2627L15.446 7.56563C15.4477 7.16485 15.2403 6.79571 14.9028 6.60235V6.60235ZM14.4774 13.2557C14.4774 13.3084 14.4546 13.3594 14.4194 13.3875L10.3588 15.1699L10.3096 15.1963C10.2885 15.2086 10.2587 15.2209 10.2182 15.198C10.2006 15.1875 10.1444 15.1488 10.1444 15.0539L10.1778 9.66798C10.1778 9.60821 10.2059 9.55196 10.2253 9.53966L14.3456 7.41622C14.3579 7.40919 14.3737 7.40216 14.3913 7.40216C14.4053 7.40216 14.4194 7.40567 14.437 7.41622C14.4546 7.42677 14.5108 7.46544 14.5108 7.56036L14.4774 13.2557V13.2557ZM8.311 8.70821L4.23815 6.60938C3.91647 6.41778 3.52975 6.41603 3.20455 6.60235C2.86705 6.79571 2.65963 7.16485 2.66139 7.56388L2.69479 13.2609C2.6983 13.6494 2.90045 14.0098 3.22565 14.2014L7.34947 16.0154C7.50592 16.1016 7.67467 16.1438 7.84342 16.1438C8.0192 16.1438 8.19322 16.098 8.35318 16.0066C8.69068 15.8133 8.89811 15.4441 8.89635 15.0451L8.86295 9.65919C8.86295 9.27423 8.65904 8.91212 8.311 8.70821V8.70821ZM7.88912 15.1963C7.84869 15.2191 7.81881 15.2086 7.79772 15.1945L3.68619 13.3875C3.65104 13.3594 3.62818 13.3102 3.62818 13.2557L3.59654 7.5586C3.59654 7.46368 3.65279 7.42325 3.67037 7.41446C3.7108 7.39161 3.73893 7.40216 3.78463 7.42852L7.85748 9.52559C7.90143 9.55196 7.92955 9.60645 7.92955 9.66622L7.96295 15.0504C7.96295 15.1471 7.9067 15.1875 7.88912 15.1963Z" fill="white"/>
</svg>
