<?xml version="1.0" encoding="utf-8"?>
<!-- Generator: Adobe Illustrator 24.3.0, SVG Export Plug-In . SVG Version: 6.00 Build 0)  -->
<svg version="1.1" id="图层_1" xmlns="http://www.w3.org/2000/svg" xmlns:xlink="http://www.w3.org/1999/xlink" x="0px" y="0px"
	 viewBox="0 0 1024 1024" style="enable-background:new 0 0 1024 1024;" xml:space="preserve">
<g>
	<path d="M481.8,435.62c16.67,16.67,43.7,16.67,60.37,0l149.4-149.4c16.67-16.67,16.67-43.7,0-60.37l-149.4-149.4
		c-16.67-16.67-43.7-16.67-60.37,0l-149.4,149.4c-16.67,16.67-16.67,43.7,0,60.37L481.8,435.62z"/>
	<path d="M542.17,588.68c-16.67-16.67-43.7-16.67-60.37,0l-149.4,149.4c-16.67,16.67-16.67,43.69,0,60.36l149.4,149.4
		c16.67,16.67,43.7,16.67,60.37,0l149.4-149.4c16.67-16.67,16.67-43.69,0-60.36L542.17,588.68z"/>
	<path d="M947.68,481.97l-149.4-149.4c-16.67-16.67-43.69-16.67-60.36,0l-149.4,149.4c-16.67,16.67-16.67,43.7,0,60.37l149.4,149.4
		c16.67,16.67,43.69,16.67,60.36,0l149.4-149.4C964.36,525.67,964.36,498.63,947.68,481.97z"/>
	<path d="M435.45,481.97l-149.4-149.4c-16.67-16.67-43.7-16.67-60.37,0l-149.4,149.4c-16.67,16.67-16.67,43.7,0,60.37l149.4,149.4
		c16.67,16.67,43.7,16.67,60.37,0l149.4-149.4C452.12,525.67,452.12,498.63,435.45,481.97z"/>
</g>
</svg>
