<svg width="15" height="16" viewBox="0 0 15 16" xmlns="http://www.w3.org/2000/svg">
<path d="M10.8998 8.71411C12.7778 8.71411 14.3 10.2364 14.3 12.1143C14.3 13.992 12.7778 15.5145 10.8998 15.5145C9.02211 15.5145 7.49963 13.9922 7.49963 12.1143C7.49963 10.2364 9.02188 8.71411 10.8998 8.71411ZM9.54367 10.06C9.35316 10.2345 9.35316 10.5174 9.54367 10.6929L10.0586 11.1672H9.68558C9.41727 11.1672 9.19961 11.3678 9.19961 11.6149C9.19961 11.8617 9.41727 12.0623 9.68558 12.0623H10.4141V12.5099H9.68558C9.41727 12.5099 9.19961 12.7105 9.19961 12.9576C9.19961 13.2044 9.41727 13.405 9.68558 13.405H10.4141V13.8526C10.4141 14.0997 10.6317 14.3 10.9 14.3C11.1679 14.3 11.3856 14.0997 11.3856 13.8526V13.405H12.1143C12.3824 13.405 12.6 13.2044 12.6 12.9576C12.6 12.7105 12.3824 12.5099 12.1141 12.5099H11.3856V12.0623H12.1143C12.3824 12.0623 12.6 11.8617 12.6 11.6149C12.6 11.3678 12.3824 11.1672 12.1141 11.1672H11.7413L12.256 10.6927C12.4465 10.5174 12.4465 10.2345 12.256 10.06C12.0666 9.88432 11.7597 9.88432 11.5692 10.06L10.8998 10.6767L10.2304 10.06C10.0401 9.88432 9.73304 9.88432 9.54367 10.06Z"/>
<path d="M11.864 0C12.2271 0 12.5753 0.144226 12.832 0.400949C13.0887 0.657673 13.233 1.00586 13.233 1.36893L13.2332 8.73421C12.5477 8.25972 11.7335 8.00616 10.8998 8.00754C8.63199 8.00754 6.79307 9.84623 6.79307 12.1143C6.79307 13.5286 7.5081 14.776 8.59617 15.5145H1.36893C1.00586 15.5145 0.657673 15.3703 0.400949 15.1136C0.144226 14.8568 0 14.5086 0 14.1456V1.36893C0 1.00586 0.144226 0.657673 0.400949 0.400949C0.657673 0.144226 1.00586 0 1.36893 0H11.864ZM5.03035 7.25668H2.92562C2.63496 7.25668 2.39927 7.47434 2.39927 7.74265C2.39927 8.01073 2.63496 8.22839 2.92562 8.22839H5.03035C5.32102 8.22839 5.5567 8.01073 5.5567 7.74242C5.5567 7.47434 5.32102 7.25668 5.03035 7.25668ZM7.20831 5.31372H2.93361C2.63861 5.31372 2.39927 5.53137 2.39927 5.79968C2.39927 6.06777 2.63861 6.2852 2.93361 6.2852H7.20831C7.50331 6.2852 7.74242 6.06777 7.74242 5.79946C7.74242 5.53138 7.50331 5.31372 7.20831 5.31372ZM9.61602 3.37075H2.9546C2.64819 3.37075 2.3995 3.58818 2.3995 3.85672C2.3995 4.1248 2.64819 4.34223 2.9546 4.34223H9.61625C9.92289 4.34223 10.1716 4.1248 10.1716 3.85649C10.1716 3.58818 9.92289 3.37075 9.61625 3.37075H9.61602Z"/>
</svg>
