<?xml version="1.0" standalone="no"?><!DOCTYPE svg PUBLIC "-//W3C//DTD SVG 1.1//EN" "http://www.w3.org/Graphics/SVG/1.1/DTD/svg11.dtd"><svg t="1741077174254" class="icon" width="240" height="240" viewBox="80 80 848 896" version="1.1" xmlns="http://www.w3.org/2000/svg" p-id="5967" xmlns:xlink="http://www.w3.org/1999/xlink"><path d="M426.666667 746.666667a42.666667 42.666667 0 0 0 42.666666-42.666667V426.666667a42.666667 42.666667 0 1 0-85.333333 0v277.333333a42.666667 42.666667 0 0 0 42.666667 42.666667zM597.333333 746.666667a42.666667 42.666667 0 0 0 42.666667-42.666667V426.666667a42.666667 42.666667 0 1 0-85.333333 0v277.333333a42.666667 42.666667 0 0 0 42.666666 42.666667z" p-id="5968"></path><path d="M938.666667 170.666667h-230.485334l-56.704-105.514667A42.666667 42.666667 0 0 0 613.973333 42.666667H411.434667a42.666667 42.666667 0 0 0-37.376 22.186666L316.074667 170.666667H85.333333a42.666667 42.666667 0 0 0 0 85.333333h64v682.666667a42.666667 42.666667 0 0 0 42.666667 42.666666h640a42.666667 42.666667 0 0 0 42.666667-42.666666V256H938.666667a42.666667 42.666667 0 0 0 0-85.333333zM436.778667 128h151.637333l22.912 42.666667h-197.973333zM789.333333 896h-554.666666V256h554.666666z" p-id="5969"></path></svg>