<?xml version="1.0" standalone="no"?><!DOCTYPE svg PUBLIC "-//W3C//DTD SVG 1.1//EN" "http://www.w3.org/Graphics/SVG/1.1/DTD/svg11.dtd"><svg t="1723451731059" class="icon" viewBox="0 0 1024 1024" version="1.1" xmlns="http://www.w3.org/2000/svg" p-id="9498" xmlns:xlink="http://www.w3.org/1999/xlink" width="200" height="200"><path d="M983.565046 287.070449a79.990651 79.990651 0 0 0 0-112.178889L834.782435 23.421263a75.959122 75.959122 0 0 0-109.683181 0l-151.342312 154.221975 258.529784 264.161126 151.406305-154.733915z m-864.410972 353.87864a152.942125 152.942125 0 0 0-34.555961 57.337299l-63.608566 238.500125a54.58562 54.58562 0 0 0 34.875924 67.832072c10.302796 3.199626 21.373502 3.199626 31.676298 0L321.242455 939.410206c21.56548-6.911192 41.211183-18.877794 57.145321-35.003908l58.233194-59.577037-258.529784-264.161127-58.87312 60.15297zM303.324549 40.827228a84.02218 84.02218 0 0 0-120.433924 0L182.378684 41.403161 42.235064 184.106483a88.053709 88.053709 0 0 0 0 122.673662L108.787285 375.316135l123.633551-126.257244a41.787116 41.787116 0 0 1 60.088977 0c16.574063 17.086003 16.574063 44.282824 0 61.368828L169.132233 435.661082l60.088977 61.304835 73.335429-74.871249a41.403161 41.403161 0 0 1 59.705022-0.575933l0.319962 0.639925a43.386929 43.386929 0 0 1 0.127985 61.17685l-0.127985 0.063993-72.951474 74.999234 60.024985 61.304835 122.993625-125.809296a41.787116 41.787116 0 0 1 60.024985 0 43.386929 43.386929 0 0 1 0.127985 61.240843l-0.127985 0.063992-124.401461 124.721423 60.792895 62.328716 0.319963-0.511941 72.631511-74.423301a41.787116 41.787116 0 0 1 60.088977 0c16.574063 17.086003 16.574063 44.282824 0 61.368827L529.090163 802.466212l-0.703918 0.575932 60.024984 61.304835 122.993626-125.233363a41.915101 41.915101 0 0 1 59.321066-0.76791l0.703918 0.703918a43.386929 43.386929 0 0 1 0.127985 61.240842l-0.127985 0.127985-123.313588 124.657431 71.927594 73.335429a84.086172 84.086172 0 0 0 120.049969 0.51194l0.76791-0.51194 140.591569-143.343247a87.989716 87.989716 0 0 0 0-122.60967L303.260556 40.891221z" p-id="9499"></path></svg>