<svg width="14" height="14" viewBox="0 0 14 14" xmlns="http://www.w3.org/2000/svg">
<path d="M10.5 0C10.8094 0 11.1062 0.116447 11.325 0.323724C11.5437 0.531001 11.6667 0.812129 11.6667 1.10526V3.31579H12.8333C13.1428 3.31579 13.4395 3.43224 13.6583 3.63951C13.8771 3.84679 14 4.12792 14 4.42105V12.8947C14 13.1879 13.8771 13.469 13.6583 13.6763C13.4395 13.8836 13.1428 14 12.8333 14H1.16667C0.857247 14 0.560501 13.8836 0.341709 13.6763C0.122916 13.469 0 13.1879 0 12.8947V1.10526C0 0.812129 0.122916 0.531001 0.341709 0.323724C0.560501 0.116447 0.857247 0 1.16667 0H10.5ZM11.6667 11.0526V12.3421C11.6667 12.4795 11.7207 12.6119 11.8182 12.7136C11.9157 12.8153 12.0497 12.879 12.194 12.8922L12.25 12.8947C12.395 12.8947 12.5348 12.8436 12.6422 12.7512C12.7495 12.6588 12.8167 12.5319 12.8306 12.3952L12.8333 12.3421V4.78947C12.8333 4.69176 12.7924 4.59805 12.7194 4.52896C12.6465 4.45987 12.5476 4.42105 12.4444 4.42105H11.6667V11.0526ZM8.75 9.94737H2.91667C2.76686 9.94744 2.62282 10.0021 2.51441 10.1C2.40599 10.198 2.3415 10.3317 2.3343 10.4734C2.3271 10.6152 2.37774 10.7541 2.47573 10.8615C2.57373 10.9688 2.71156 11.0364 2.86067 11.0501L2.91667 11.0526H8.75C8.90471 11.0526 9.05308 10.9944 9.16248 10.8908C9.27188 10.7871 9.33333 10.6466 9.33333 10.5C9.33333 10.3534 9.27188 10.2129 9.16248 10.1092C9.05308 10.0056 8.90471 9.94737 8.75 9.94737ZM8.75 7H2.91667C2.76686 7.00007 2.62282 7.05474 2.51441 7.15268C2.40599 7.25061 2.3415 7.38432 2.3343 7.52607C2.3271 7.66783 2.37774 7.80678 2.47573 7.91413C2.57373 8.02147 2.71156 8.08899 2.86067 8.10268L2.91667 8.10526H8.75C8.90471 8.10526 9.05308 8.04704 9.16248 7.9434C9.27188 7.83976 9.33333 7.6992 9.33333 7.55263C9.33333 7.40606 9.27188 7.2655 9.16248 7.16186C9.05308 7.05822 8.90471 7 8.75 7ZM6.22222 2.94737H2.72222C2.62697 2.94738 2.53504 2.98051 2.46386 3.04047C2.39268 3.10044 2.3472 3.18307 2.33606 3.27268L2.33333 3.31579V4.78947C2.33335 4.87971 2.36832 4.96681 2.43161 5.03424C2.49491 5.10168 2.58212 5.14476 2.67672 5.15532L2.72222 5.1579H6.22222C6.31747 5.15788 6.40941 5.12475 6.48059 5.06479C6.55177 5.00483 6.59724 4.9222 6.60839 4.83258L6.61111 4.78947V3.31579C6.61111 3.26741 6.60105 3.2195 6.58151 3.1748C6.56197 3.1301 6.53332 3.08949 6.49721 3.05528C6.4611 3.02107 6.41823 2.99393 6.37104 2.97541C6.32386 2.9569 6.27329 2.94737 6.22222 2.94737Z" />
</svg>
