<?xml version="1.0" standalone="no"?><!DOCTYPE svg PUBLIC "-//W3C//DTD SVG 1.1//EN" "http://www.w3.org/Graphics/SVG/1.1/DTD/svg11.dtd"><svg t="1740995842444" class="icon" width="240" height="240" viewBox="120 120 780 780" version="1.1" xmlns="http://www.w3.org/2000/svg" p-id="13089" xmlns:xlink="http://www.w3.org/1999/xlink"><path d="M695.168 140.501333a42.666667 42.666667 0 0 1 60.330667 0l128 128a42.666667 42.666667 0 0 1 0 60.330667l-384 384A42.666667 42.666667 0 0 1 469.333333 725.333333H341.333333a42.666667 42.666667 0 0 1-42.666666-42.666666v-128a42.666667 42.666667 0 0 1 12.501333-30.165334l384-384zM384 572.330667V640h67.669333l341.333334-341.333333L725.333333 230.997333l-341.333333 341.333334zM128 298.666667a85.333333 85.333333 0 0 1 85.333333-85.333334h213.333334a42.666667 42.666667 0 1 1 0 85.333334H213.333333v512h512v-213.333334a42.666667 42.666667 0 1 1 85.333334 0v213.333334a85.333333 85.333333 0 0 1-85.333334 85.333333H213.333333a85.333333 85.333333 0 0 1-85.333333-85.333333V298.666667z" p-id="13090"></path></svg>