<?xml version="1.0" standalone="no"?><!DOCTYPE svg PUBLIC "-//W3C//DTD SVG 1.1//EN" "http://www.w3.org/Graphics/SVG/1.1/DTD/svg11.dtd"><svg t="1740996680617" class="icon" width="240" height="240" viewBox="120 120 780 780" version="1.1" xmlns="http://www.w3.org/2000/svg" p-id="13231" xmlns:xlink="http://www.w3.org/1999/xlink"><path d="M853.333333 554.666667a42.666667 42.666667 0 0 0-42.666666 42.666666v213.333334H213.333333v-213.333334a42.666667 42.666667 0 1 0-85.333333 0v213.333334a85.333333 85.333333 0 0 0 85.333333 85.333333h597.333334a85.333333 85.333333 0 0 0 85.333333-85.333333v-213.333334a42.666667 42.666667 0 0 0-42.666667-42.666666z" p-id="13232"></path><path d="M541.866667 97.536A42.496 42.496 0 0 0 512.170667 85.333333h-0.256a42.538667 42.538667 0 0 0-30.037334 12.501334l-170.666666 170.666666a42.666667 42.666667 0 0 0 60.330666 60.330667L469.333333 230.997333V640a42.666667 42.666667 0 1 0 85.333334 0V230.997333l97.834666 97.834667a42.666667 42.666667 0 1 0 60.330667-60.330667l-170.666667-170.666666-0.298666-0.298667z" p-id="13233"></path></svg>