<?xml version="1.0" standalone="no"?><!DOCTYPE svg PUBLIC "-//W3C//DTD SVG 1.1//EN" "http://www.w3.org/Graphics/SVG/1.1/DTD/svg11.dtd"><svg t="1741051138195" class="icon" width="240" height="240" viewBox="72 72 864 864" version="1.1" xmlns="http://www.w3.org/2000/svg" p-id="5254" xmlns:xlink="http://www.w3.org/1999/xlink"><path d="M510.72 378.282667a134.954667 134.954667 0 0 0-134.101333 134.229333 134.954667 134.954667 0 0 0 134.101333 134.101333c73.386667 0 134.186667-60.714667 134.186667-134.101333-0.085333-73.386667-60.8-134.229333-134.186667-134.229333z" p-id="5255"></path><path d="M510.72 199.509333c-341.333333 0-443.904 295.893333-444.842667 298.88a44.245333 44.245333 0 0 0 0 28.330667c0.938667 2.986667 103.509333 298.794667 444.8 298.794667 341.333333 0 443.904-295.893333 444.842667-298.922667a44.245333 44.245333 0 0 0 0-28.288c-0.938667-2.901333-103.509333-298.794667-444.8-298.794667z m0 536.576c-239.36 0-332.032-171.946667-354.432-223.573333 22.528-51.797333 115.328-223.573333 354.389333-223.573333 239.36 0 332.032 171.946667 354.432 223.573333-22.528 51.797333-115.328 223.573333-354.389333 223.573333z" p-id="5256"></path></svg>