<?xml version="1.0" standalone="no"?><!DOCTYPE svg PUBLIC "-//W3C//DTD SVG 1.1//EN" "http://www.w3.org/Graphics/SVG/1.1/DTD/svg11.dtd"><svg t="1741051152045" class="icon" width="240" height="240" viewBox="72 72 864 864" version="1.1" xmlns="http://www.w3.org/2000/svg" p-id="5397" xmlns:xlink="http://www.w3.org/1999/xlink"><path d="M864.085333 673.28c65.834667-72.96 91.008-145.194667 91.52-146.56a44.245333 44.245333 0 0 0 0-28.330667c-0.896-2.986667-103.509333-298.88-444.8-298.88-39.594667 0-75.690667 4.266667-109.098666 11.392l79.36 79.402667c9.728-0.597333 19.456-1.28 29.653333-1.28 239.274667 0 331.946667 171.946667 354.389333 223.573333a384.64 384.64 0 0 1-63.488 98.389334l62.464 62.293333z m-353.365333 152.234667c82.090667 0 149.973333-17.408 206.378667-43.392l139.690666 139.690666a34.986667 34.986667 0 0 0 49.493334 0l13.738666-13.696a34.944 34.944 0 0 0 0-49.493333L164.608 103.210667a34.986667 34.986667 0 0 0-49.493333 0l-13.696 13.653333a34.986667 34.986667 0 0 0 0 49.536l123.690666 123.733333c-116.906667 87.253333-158.592 206.250667-159.317333 208.170667a44.202667 44.202667 0 0 0 0 28.288c1.024 2.986667 103.594667 298.922667 444.928 298.922667zM288.512 353.493333l101.589333 101.589334c-23.296 49.834667-15.104 111.402667 25.685334 152.234666 40.832 40.789333 102.4 49.066667 152.234666 25.685334l80.469334 80.512a411.306667 411.306667 0 0 1-137.813334 22.485333c-239.274667 0-331.946667-171.989333-354.389333-223.573333a385.408 385.408 0 0 1 132.224-158.933334z" p-id="5398"></path></svg>