<?xml version="1.0" standalone="no"?><!DOCTYPE svg PUBLIC "-//W3C//DTD SVG 1.1//EN" "http://www.w3.org/Graphics/SVG/1.1/DTD/svg11.dtd"><svg t="1740996797129" class="icon" width="240" height="240" viewBox="120 120 780 780" version="1.1" xmlns="http://www.w3.org/2000/svg" p-id="13659" xmlns:xlink="http://www.w3.org/1999/xlink"><path d="M640 896a42.666667 42.666667 0 0 1-42.666667-42.666667v-128a128 128 0 0 1 128-128h128a42.666667 42.666667 0 1 1 0 85.333334h-128a42.666667 42.666667 0 0 0-42.666666 42.666666v128a42.666667 42.666667 0 0 1-42.666667 42.666667z m-256 0a42.666667 42.666667 0 0 1-42.666667-42.666667v-128a42.666667 42.666667 0 0 0-42.666666-42.666666H170.666667a42.666667 42.666667 0 1 1 0-85.333334h128a128 128 0 0 1 128 128v128a42.666667 42.666667 0 0 1-42.666667 42.666667zM896 384a42.666667 42.666667 0 0 1-42.666667 42.666667h-128a128 128 0 0 1-128-128V170.666667a42.666667 42.666667 0 1 1 85.333334 0v128a42.666667 42.666667 0 0 0 42.666666 42.666666h128a42.666667 42.666667 0 0 1 42.666667 42.666667zM298.666667 341.333333a42.666667 42.666667 0 0 0 42.666666-42.666666V170.666667a42.666667 42.666667 0 1 1 85.333334 0v128a128 128 0 0 1-128 128H170.666667a42.666667 42.666667 0 1 1 0-85.333334h128z" p-id="13660"></path></svg>