<?xml version="1.0" standalone="no"?><!DOCTYPE svg PUBLIC "-//W3C//DTD SVG 1.1//EN" "http://www.w3.org/Graphics/SVG/1.1/DTD/svg11.dtd"><svg t="1740996684110" class="icon" width="240" height="240" viewBox="120 120 780 780" version="1.1" xmlns="http://www.w3.org/2000/svg" p-id="13374" xmlns:xlink="http://www.w3.org/1999/xlink"><path d="M213.333333 597.333333a42.666667 42.666667 0 1 0-85.333333 0v213.333334a85.333333 85.333333 0 0 0 85.333333 85.333333h597.333334a85.333333 85.333333 0 0 0 85.333333-85.333333v-213.333334a42.666667 42.666667 0 1 0-85.333333 0v213.333334H213.333333v-213.333334z" p-id="13375"></path><path d="M482.133333 670.464a42.453333 42.453333 0 0 0 29.738667 12.202667h0.256c10.88 0 21.76-4.181333 30.037333-12.501334l170.666667-170.666666a42.666667 42.666667 0 0 0-60.330667-60.330667L554.666667 537.002667V128a42.666667 42.666667 0 1 0-85.333334 0v409.002667l-97.834666-97.834667a42.666667 42.666667 0 1 0-60.330667 60.330667l170.666667 170.666666 0.298666 0.298667z" p-id="13376"></path></svg>