<?xml version="1.0" standalone="no"?><!DOCTYPE svg PUBLIC "-//W3C//DTD SVG 1.1//EN" "http://www.w3.org/Graphics/SVG/1.1/DTD/svg11.dtd"><svg t="1733988465323" class="icon" viewBox="0 0 1024 1024" version="1.1" xmlns="http://www.w3.org/2000/svg" p-id="33311" id="mx_n_1733988465323" width="32" height="32" xmlns:xlink="http://www.w3.org/1999/xlink"><path d="M515.41333334 237.056L847.10400034 542.72a32.768 32.768 0 0 0 40.704 0 26.112 26.112 0 0 0 0-37.888l-350.72-327.168c-10.837333-9.386667-29.866667-9.386667-40.70399999 0l-350.72000001 324.778667a26.112 26.112 0 0 0-1e-8 37.888 32.768 32.768 0 0 0 40.78933301 0L515.41333334 237.056z m0 303.36L847.10400034 846.250667a32.768 32.768 0 0 0 40.704 0 26.112 26.112 0 0 0 0-37.97333399l-350.72-327.08266601c-10.837333-9.47200001-29.866667-9.472-40.704 0l-350.72000001 324.693333a26.112 26.112 0 0 0 1e-8 37.973333 32.768 32.768 0 0 0 40.789333 0L515.41333334 540.416z" fill="#000000" p-id="33312"></path></svg>