<?xml version="1.0" standalone="no"?><!DOCTYPE svg PUBLIC "-//W3C//DTD SVG 1.1//EN" "http://www.w3.org/Graphics/SVG/1.1/DTD/svg11.dtd"><svg t="1733988731706" class="icon" viewBox="0 0 1024 1024" version="1.1" xmlns="http://www.w3.org/2000/svg" p-id="34329" width="32" height="32" xmlns:xlink="http://www.w3.org/1999/xlink"><path d="M465.92 786.944L134.229333 481.28a32.768 32.768 0 0 0-40.704 0 26.112 26.112 0 0 0 0 37.888l350.72 327.168c10.837333 9.386667 29.866667 9.386667 40.704 0l350.72-324.778667a26.112 26.112 0 0 0 0-37.888 32.768 32.768 0 0 0-40.789333 0L465.92 786.944z m0-303.36L134.229333 177.749333a32.768 32.768 0 0 0-40.704 0 26.112 26.112 0 0 0 0 37.973334l350.72 327.082666c10.837333 9.472 29.866667 9.472 40.704 0l350.72-324.693333a26.112 26.112 0 0 0 0-37.973333 32.768 32.768 0 0 0-40.789333 0L465.92 483.584z" fill="#000000" p-id="34330"></path></svg>