<?xml version="1.0" standalone="no"?><!DOCTYPE svg PUBLIC "-//W3C//DTD SVG 1.1//EN" "http://www.w3.org/Graphics/SVG/1.1/DTD/svg11.dtd"><svg t="1740997419073" class="icon" viewBox="88 0 860 1024" version="1.1" xmlns="http://www.w3.org/2000/svg" p-id="14085" xmlns:xlink="http://www.w3.org/1999/xlink" width="200" height="200"><path d="M755.809524 341.333333V243.809524A243.809524 243.809524 0 0 0 268.190476 243.809524v97.523809a146.285714 146.285714 0 0 0-146.285714 146.285715v390.095238a146.285714 146.285714 0 0 0 146.285714 146.285714h487.619048a146.285714 146.285714 0 0 0 146.285714-146.285714v-390.095238a146.285714 146.285714 0 0 0-146.285714-146.285715zM365.714286 243.809524a146.285714 146.285714 0 1 1 292.571428 0v97.523809H365.714286z m438.857143 633.904762a48.761905 48.761905 0 0 1-48.761905 48.761904H268.190476a48.761905 48.761905 0 0 1-48.761905-48.761904v-390.095238a48.761905 48.761905 0 0 1 48.761905-48.761905h487.619048a48.761905 48.761905 0 0 1 48.761905 48.761905z" p-id="14086"></path><path d="M512 585.142857a48.761905 48.761905 0 0 0-48.761905 48.761905v97.523809a48.761905 48.761905 0 0 0 97.52381 0v-97.523809a48.761905 48.761905 0 0 0-48.761905-48.761905z" p-id="14087"></path></svg>