<svg width="28" height="28" viewBox="0 0 28 28" fill="none" xmlns="http://www.w3.org/2000/svg">
<path d="M6.99992 15.1663C7.64159 15.1663 8.16659 14.6413 8.16659 13.9997C8.16659 13.358 7.64159 12.833 6.99992 12.833C6.35825 12.833 5.83325 13.358 5.83325 13.9997C5.83325 14.6413 6.35825 15.1663 6.99992 15.1663Z" stroke="#515972" stroke-width="2.4"/>
<path d="M13.9999 15.1663C14.6416 15.1663 15.1666 14.6413 15.1666 13.9997C15.1666 13.358 14.6416 12.833 13.9999 12.833C13.3583 12.833 12.8333 13.358 12.8333 13.9997C12.8333 14.6413 13.3583 15.1663 13.9999 15.1663Z" stroke="#515972" stroke-width="2.4"/>
<path d="M20.9999 15.1663C21.6416 15.1663 22.1666 14.6413 22.1666 13.9997C22.1666 13.358 21.6416 12.833 20.9999 12.833C20.3583 12.833 19.8333 13.358 19.8333 13.9997C19.8333 14.6413 20.3583 15.1663 20.9999 15.1663Z" stroke="#515972" stroke-width="2.4"/>
</svg>
