<svg width="20" height="16" viewBox="0 0 20 16" fill="none" xmlns="http://www.w3.org/2000/svg">
<rect x="2" width="16" height="16" rx="8" fill="#D1E1FF"/>
<path d="M6.61743 1.87744H2.836V6.8796H6.61743V1.87744Z" fill="url(#paint0_linear_352_233)"/>
<path d="M6.59741 1.96427L6.584 1.83704L6.53707 1.71651L6.45661 1.60267L6.34263 1.48214L6.16831 1.3549L5.94706 1.23437L5.67217 1.13393L5.39057 1.06696L5.07545 1.02009L4.72681 1L4.38487 1.02009L4.06975 1.06696L3.78816 1.13393L3.51327 1.23437L3.29202 1.3549L3.11769 1.48214L2.99701 1.60267L2.92326 1.71651L2.87633 1.83704L2.86292 1.96427L3.05735 1.94418L4.31783 1.92409L5.85319 1.93079L6.59741 1.96427Z" fill="url(#paint1_linear_352_233)"/>
<path d="M6.604 6.75195L6.58389 6.8524L6.54366 6.94615L6.46321 7.04659L6.34923 7.14034L6.17491 7.24079L5.95365 7.33453L5.39717 7.46846L4.7334 7.51533L4.06964 7.46846L3.50645 7.33453L3.2919 7.24079L3.11758 7.14034L2.9969 7.04659L2.92315 6.94615L2.87621 6.8524L2.8628 6.75195L4.31772 6.79213L5.85308 6.78543L6.604 6.75195Z" fill="url(#paint2_linear_352_233)"/>
<path d="M2.86963 4.26807H1.11301L0.965506 4.35512L0.891754 4.45556L0.824708 4.62967L0.811298 4.7569L0.824708 4.88413L0.891754 5.05154L0.965506 5.13859L1.11301 5.21895H2.86963V4.26807Z" fill="url(#paint3_linear_352_233)"/>
<path d="M1.95767 3.99316L1.8571 4.02665L1.81687 4.1003V5.3793L1.83028 5.42618L1.89062 5.47975H1.99119L2.05824 5.42618L2.06494 5.3793V4.1003L2.03142 4.02665L1.95767 3.99316Z" fill="url(#paint4_linear_352_233)"/>
<path d="M5.51123 7.38184H3.93564V8.547H5.51123V7.38184Z" fill="url(#paint5_linear_352_233)"/>
<path d="M12.6116 2.6875H11.036V3.84597H12.6116V2.6875Z" fill="url(#paint6_linear_352_233)"/>
<path d="M10.9956 3.04932H9.21887V3.85288H10.9956V3.04932Z" fill="url(#paint7_linear_352_233)"/>
<path d="M17.9814 8.50146H0.508385V12.9902H17.9814V8.50146Z" fill="url(#paint8_linear_352_233)"/>
<path d="M19.3674 10.7649L19.3608 10.4494L19.2812 9.88158L19.2148 9.61344L19.0423 9.16392L18.9295 8.95887L18.6907 8.67496L18.5447 8.58033L18.4054 8.51724L18.2528 8.50146V13.0204L18.4054 13.0046L18.5447 12.9415L18.6907 12.8469L18.9295 12.5551L19.0423 12.3579L19.2148 11.9084L19.2812 11.6481L19.3608 11.0803L19.3674 10.7649Z" fill="url(#paint9_linear_352_233)"/>
<path d="M18.1442 8.16992L18.0222 8.19L17.9816 8.25021V13.9642L17.9883 13.9976L18.0426 14.0445L18.2188 14.0244L18.2527 13.9642V8.25021L18.2256 8.19L18.1442 8.16992Z" fill="url(#paint10_linear_352_233)"/>
<path d="M0.415788 8.17822L0.288399 8.19831L0.248171 8.25858V13.9772L0.254876 14.0107L0.315218 14.0576L0.482834 14.0375L0.516357 13.9772V8.25858L0.489539 8.19831L0.415788 8.17822Z" fill="url(#paint11_linear_352_233)"/>
<path d="M17.6533 2.56006H13.0204V7.63588H17.6533V2.56006Z" fill="url(#paint12_linear_352_233)"/>
<path d="M17.8411 7.60254H7.241V8.09807H17.8411V7.60254Z" fill="url(#paint13_linear_352_233)"/>
<path d="M17.2444 8.09131H16.4465V8.49309H17.2444V8.09131Z" fill="url(#paint14_linear_352_233)"/>
<path d="M12.9602 8.09131H12.1624V8.49309H12.9602V8.09131Z" fill="url(#paint15_linear_352_233)"/>
<path d="M8.68262 8.09131H7.87806V8.49309H8.68262V8.09131Z" fill="url(#paint16_linear_352_233)"/>
<path d="M12.5981 3.8125H7.40203V7.62941H12.5981V3.8125Z" fill="url(#paint17_linear_352_233)"/>
<path d="M17.4053 3.48438H13.2685V6.70531H17.4053V3.48438Z" fill="url(#paint18_linear_352_233)"/>
<path d="M0.750977 13.7734H5.6088e-05V14.3024H0.750977V13.7734Z" fill="url(#paint19_linear_352_233)"/>
<path d="M12.1824 5.72746L12.169 5.62702L12.0751 5.473L11.9276 5.38595L11.827 5.37256L11.7332 5.38595L11.579 5.473L11.4851 5.62702L11.4717 5.72746L11.4851 5.82121L11.579 5.96853L11.7332 6.05559L11.827 6.06898L11.9276 6.05559L12.0751 5.96853L12.169 5.82121L12.1824 5.72746Z" fill="url(#paint20_linear_352_233)" stroke="#888889"/>
<path d="M11.5791 5.47942L11.5523 5.53969L11.5791 5.59326L11.9613 5.98165L12.0216 6.00174L12.0685 5.98834L12.1021 5.94147L12.0752 5.86111L11.6931 5.47942L11.6327 5.45264L11.5791 5.47942Z" fill="url(#paint21_linear_352_233)"/>
<path d="M12.3232 4.47559H7.68362V5.0046H12.3232V4.47559Z" fill="url(#paint22_linear_352_233)"/>
<path d="M16.8086 3.93945H13.8585V4.60909H16.8086V3.93945Z" fill="#8D8D8D"/>
<path d="M10.8616 5.45996H7.69027V7.12065H10.8616V5.45996Z" fill="url(#paint23_linear_352_233)"/>
<path d="M18.4983 13.7734H17.7474V14.3024H18.4983V13.7734Z" fill="url(#paint24_linear_352_233)"/>
<path d="M19.7787 8.8916H18.8468L18.7596 8.91169L18.6859 8.95187L18.639 9.02553L18.6255 9.11258V9.56123L18.639 9.64829L18.6859 9.71525L18.7596 9.76212L18.8468 9.78221H19.7787L19.8592 9.76882L19.933 9.71525L19.9799 9.64829L20 9.56123V9.11258L19.9799 9.02553L19.933 8.95187L19.8592 8.905L19.7787 8.8916Z" fill="url(#paint25_linear_352_233)"/>
<path d="M19.7787 11.5767H18.8468L18.7596 11.5901L18.6859 11.6369L18.639 11.7039L18.6255 11.7976V12.2463L18.639 12.3266L18.6859 12.4003L18.7596 12.4472L18.8468 12.4673H19.7787L19.8592 12.4472L19.933 12.4003L19.9799 12.3266L20 12.2463V11.7976L19.9799 11.7039L19.933 11.6369L19.8592 11.5901L19.7787 11.5767Z" fill="url(#paint26_linear_352_233)"/>
<path d="M19.6513 8.69092L19.5574 8.7311L19.5239 8.81145V9.85608L19.5306 9.90295L19.6044 9.96322H19.6915L19.7586 9.90295L19.772 9.85608V8.81145L19.7317 8.7311L19.6513 8.69092Z" fill="url(#paint27_linear_352_233)"/>
<path d="M19.6513 11.376L19.5574 11.4162L19.5239 11.4965V12.5411L19.5306 12.5813L19.6044 12.6483H19.6915L19.7586 12.5813L19.772 12.5411V11.4965L19.7317 11.4162L19.6513 11.376Z" fill="url(#paint28_linear_352_233)"/>
<defs>
<linearGradient id="paint0_linear_352_233" x1="6.62405" y1="4.37433" x2="2.82818" y2="4.37433" gradientUnits="userSpaceOnUse">
<stop stop-color="#C2C7C9"/>
<stop offset="0.03" stop-color="#A9AEAF"/>
<stop offset="0.2" stop-color="#B3B8B9"/>
<stop offset="0.31" stop-color="#BDC3C4"/>
<stop offset="0.48" stop-color="#D5DBDD"/>
<stop offset="0.75" stop-color="#F8FCFD"/>
<stop offset="0.85" stop-color="#F4FAFC"/>
<stop offset="1" stop-color="#BAC0C1"/>
</linearGradient>
<linearGradient id="paint1_linear_352_233" x1="6.60395" y1="1.48133" x2="2.85519" y2="1.48133" gradientUnits="userSpaceOnUse">
<stop stop-color="#C2C7C9"/>
<stop offset="0.03" stop-color="#A9AEAF"/>
<stop offset="0.2" stop-color="#B3B8B9"/>
<stop offset="0.31" stop-color="#BDC3C4"/>
<stop offset="0.48" stop-color="#D5DBDD"/>
<stop offset="0.75" stop-color="#F8FCFD"/>
<stop offset="0.85" stop-color="#F4FAFC"/>
<stop offset="1" stop-color="#BAC0C1"/>
</linearGradient>
<linearGradient id="paint2_linear_352_233" x1="6.61055" y1="7.133" x2="2.85506" y2="7.133" gradientUnits="userSpaceOnUse">
<stop stop-color="#C2C7C9"/>
<stop offset="0.03" stop-color="#A9AEAF"/>
<stop offset="0.2" stop-color="#B3B8B9"/>
<stop offset="0.31" stop-color="#BDC3C4"/>
<stop offset="0.48" stop-color="#D5DBDD"/>
<stop offset="0.75" stop-color="#F8FCFD"/>
<stop offset="0.85" stop-color="#F4FAFC"/>
<stop offset="1" stop-color="#BAC0C1"/>
</linearGradient>
<linearGradient id="paint3_linear_352_233" x1="1.84046" y1="4.25386" x2="1.84046" y2="5.29723" gradientUnits="userSpaceOnUse">
<stop stop-color="#C4C4C4"/>
<stop offset="0.15" stop-color="white"/>
<stop offset="0.25" stop-color="white"/>
<stop offset="0.44" stop-color="#DFDFDF"/>
<stop offset="0.6" stop-color="#C7C7C7"/>
<stop offset="0.8" stop-color="#A8A8A8"/>
<stop offset="0.97" stop-color="#999999"/>
</linearGradient>
<linearGradient id="paint4_linear_352_233" x1="1.81687" y1="3.99316" x2="2.06494" y2="3.99316" gradientUnits="userSpaceOnUse">
<stop stop-color="#C4C4C4"/>
<stop offset="0.15" stop-color="white"/>
<stop offset="0.25" stop-color="white"/>
<stop offset="0.44" stop-color="#DFDFDF"/>
<stop offset="0.6" stop-color="#C7C7C7"/>
<stop offset="0.8" stop-color="#A8A8A8"/>
<stop offset="0.97" stop-color="#999999"/>
</linearGradient>
<linearGradient id="paint5_linear_352_233" x1="5.51399" y1="7.96344" x2="3.93238" y2="7.96344" gradientUnits="userSpaceOnUse">
<stop stop-color="#C2C7C9"/>
<stop offset="0.03" stop-color="#A9AEAF"/>
<stop offset="0.2" stop-color="#B3B8B9"/>
<stop offset="0.31" stop-color="#BDC3C4"/>
<stop offset="0.48" stop-color="#D5DBDD"/>
<stop offset="0.75" stop-color="#F8FCFD"/>
<stop offset="0.85" stop-color="#F4FAFC"/>
<stop offset="1" stop-color="#BAC0C1"/>
</linearGradient>
<linearGradient id="paint6_linear_352_233" x1="11.036" y1="2.6875" x2="12.6116" y2="2.6875" gradientUnits="userSpaceOnUse">
<stop stop-color="#B5B5B5"/>
<stop offset="0.03" stop-color="white"/>
<stop offset="0.08" stop-color="#EBEBEB"/>
<stop offset="0.64" stop-color="#E7E7E7"/>
<stop offset="0.95" stop-color="#E2E2E2"/>
<stop offset="1" stop-color="#A8A8A8"/>
</linearGradient>
<linearGradient id="paint7_linear_352_233" x1="10.9987" y1="3.45042" x2="9.21519" y2="3.45042" gradientUnits="userSpaceOnUse">
<stop stop-color="#C2C7C9"/>
<stop offset="0.03" stop-color="#A9AEAF"/>
<stop offset="0.2" stop-color="#B3B8B9"/>
<stop offset="0.31" stop-color="#BDC3C4"/>
<stop offset="0.48" stop-color="#D5DBDD"/>
<stop offset="0.75" stop-color="#F8FCFD"/>
<stop offset="0.85" stop-color="#F4FAFC"/>
<stop offset="1" stop-color="#BAC0C1"/>
</linearGradient>
<linearGradient id="paint8_linear_352_233" x1="9.24492" y1="8.43441" x2="9.24492" y2="13.3598" gradientUnits="userSpaceOnUse">
<stop stop-color="#C4C4C4"/>
<stop offset="0.15" stop-color="white"/>
<stop offset="0.25" stop-color="white"/>
<stop offset="0.44" stop-color="#DFDFDF"/>
<stop offset="0.6" stop-color="#C7C7C7"/>
<stop offset="0.8" stop-color="#A8A8A8"/>
<stop offset="0.97" stop-color="#999999"/>
</linearGradient>
<linearGradient id="paint9_linear_352_233" x1="18.8101" y1="8.43396" x2="18.8101" y2="13.3924" gradientUnits="userSpaceOnUse">
<stop stop-color="#C4C4C4"/>
<stop offset="0.15" stop-color="white"/>
<stop offset="0.25" stop-color="white"/>
<stop offset="0.44" stop-color="#DFDFDF"/>
<stop offset="0.6" stop-color="#C7C7C7"/>
<stop offset="0.8" stop-color="#A8A8A8"/>
<stop offset="0.97" stop-color="#999999"/>
</linearGradient>
<linearGradient id="paint10_linear_352_233" x1="18.2532" y1="11.1023" x2="17.981" y2="11.1023" gradientUnits="userSpaceOnUse">
<stop stop-color="#C2C7C9"/>
<stop offset="0.03" stop-color="#A9AEAF"/>
<stop offset="0.2" stop-color="#B3B8B9"/>
<stop offset="0.31" stop-color="#BDC3C4"/>
<stop offset="0.48" stop-color="#D5DBDD"/>
<stop offset="0.75" stop-color="#F8FCFD"/>
<stop offset="0.85" stop-color="#F4FAFC"/>
<stop offset="1" stop-color="#BAC0C1"/>
</linearGradient>
<linearGradient id="paint11_linear_352_233" x1="0.248171" y1="8.17822" x2="0.516357" y2="8.17822" gradientUnits="userSpaceOnUse">
<stop stop-color="#C4C4C4"/>
<stop offset="0.15" stop-color="white"/>
<stop offset="0.25" stop-color="white"/>
<stop offset="0.44" stop-color="#DFDFDF"/>
<stop offset="0.6" stop-color="#C7C7C7"/>
<stop offset="0.8" stop-color="#A8A8A8"/>
<stop offset="0.97" stop-color="#999999"/>
</linearGradient>
<linearGradient id="paint12_linear_352_233" x1="13.0204" y1="2.56006" x2="17.6533" y2="2.56006" gradientUnits="userSpaceOnUse">
<stop stop-color="#B5B5B5"/>
<stop offset="0.03" stop-color="white"/>
<stop offset="0.08" stop-color="#EBEBEB"/>
<stop offset="0.64" stop-color="#E7E7E7"/>
<stop offset="0.95" stop-color="#E2E2E2"/>
<stop offset="1" stop-color="#A8A8A8"/>
</linearGradient>
<linearGradient id="paint13_linear_352_233" x1="12.541" y1="7.59514" x2="12.541" y2="8.13887" gradientUnits="userSpaceOnUse">
<stop stop-color="#C4C4C4"/>
<stop offset="0.15" stop-color="white"/>
<stop offset="0.25" stop-color="white"/>
<stop offset="0.44" stop-color="#DFDFDF"/>
<stop offset="0.6" stop-color="#C7C7C7"/>
<stop offset="0.8" stop-color="#A8A8A8"/>
<stop offset="0.97" stop-color="#999999"/>
</linearGradient>
<linearGradient id="paint14_linear_352_233" x1="16.4465" y1="8.09131" x2="17.2444" y2="8.09131" gradientUnits="userSpaceOnUse">
<stop stop-color="#B5B5B5"/>
<stop offset="0.03" stop-color="white"/>
<stop offset="0.08" stop-color="#EBEBEB"/>
<stop offset="0.64" stop-color="#E7E7E7"/>
<stop offset="0.95" stop-color="#E2E2E2"/>
<stop offset="1" stop-color="#A8A8A8"/>
</linearGradient>
<linearGradient id="paint15_linear_352_233" x1="12.1624" y1="8.09131" x2="12.9602" y2="8.09131" gradientUnits="userSpaceOnUse">
<stop stop-color="#B5B5B5"/>
<stop offset="0.03" stop-color="white"/>
<stop offset="0.08" stop-color="#EBEBEB"/>
<stop offset="0.64" stop-color="#E7E7E7"/>
<stop offset="0.95" stop-color="#E2E2E2"/>
<stop offset="1" stop-color="#A8A8A8"/>
</linearGradient>
<linearGradient id="paint16_linear_352_233" x1="7.87806" y1="8.09131" x2="8.68262" y2="8.09131" gradientUnits="userSpaceOnUse">
<stop stop-color="#B5B5B5"/>
<stop offset="0.03" stop-color="white"/>
<stop offset="0.08" stop-color="#EBEBEB"/>
<stop offset="0.64" stop-color="#E7E7E7"/>
<stop offset="0.95" stop-color="#E2E2E2"/>
<stop offset="1" stop-color="#A8A8A8"/>
</linearGradient>
<linearGradient id="paint17_linear_352_233" x1="7.40203" y1="3.8125" x2="12.5981" y2="3.8125" gradientUnits="userSpaceOnUse">
<stop stop-color="#B5B5B5"/>
<stop offset="0.03" stop-color="white"/>
<stop offset="0.08" stop-color="#EBEBEB"/>
<stop offset="0.64" stop-color="#E7E7E7"/>
<stop offset="0.95" stop-color="#E2E2E2"/>
<stop offset="1" stop-color="#A8A8A8"/>
</linearGradient>
<linearGradient id="paint18_linear_352_233" x1="15.3369" y1="3.47037" x2="15.3369" y2="6.63359" gradientUnits="userSpaceOnUse">
<stop stop-color="#494949"/>
<stop offset="0.0988792" stop-color="#8F8F8F"/>
<stop offset="0.453581" stop-color="#434242"/>
<stop offset="0.792595" stop-color="#343434"/>
<stop offset="0.948698" stop-color="#4E4E4E"/>
<stop offset="1" stop-color="#191919"/>
</linearGradient>
<linearGradient id="paint19_linear_352_233" x1="0.375516" y1="13.7655" x2="0.375516" y2="14.346" gradientUnits="userSpaceOnUse">
<stop stop-color="#C4C4C4"/>
<stop offset="0.15" stop-color="white"/>
<stop offset="0.25" stop-color="white"/>
<stop offset="0.44" stop-color="#DFDFDF"/>
<stop offset="0.6" stop-color="#C7C7C7"/>
<stop offset="0.8" stop-color="#A8A8A8"/>
<stop offset="0.97" stop-color="#999999"/>
</linearGradient>
<linearGradient id="paint20_linear_352_233" x1="12.1824" y1="5.37256" x2="12.1824" y2="6.06898" gradientUnits="userSpaceOnUse">
<stop stop-color="#BAC0C1"/>
<stop offset="0.15" stop-color="#F4FAFC"/>
<stop offset="0.25" stop-color="#F8FCFD"/>
<stop offset="0.52" stop-color="#D5DBDD"/>
<stop offset="0.69" stop-color="#BDC3C4"/>
<stop offset="0.8" stop-color="#B3B8B9"/>
<stop offset="0.97" stop-color="#A9AEAF"/>
<stop offset="1" stop-color="#C2C7C9"/>
</linearGradient>
<linearGradient id="paint21_linear_352_233" x1="11.5523" y1="5.45264" x2="12.1021" y2="5.45264" gradientUnits="userSpaceOnUse">
<stop stop-color="#BAC0C1"/>
<stop offset="0.15" stop-color="#F4FAFC"/>
<stop offset="0.25" stop-color="#F8FCFD"/>
<stop offset="0.52" stop-color="#D5DBDD"/>
<stop offset="0.69" stop-color="#BDC3C4"/>
<stop offset="0.8" stop-color="#B3B8B9"/>
<stop offset="0.97" stop-color="#A9AEAF"/>
<stop offset="1" stop-color="#C2C7C9"/>
</linearGradient>
<linearGradient id="paint22_linear_352_233" x1="12.3232" y1="4.47559" x2="12.3232" y2="5.0046" gradientUnits="userSpaceOnUse">
<stop stop-color="#292525"/>
<stop offset="0.01" stop-color="#868584"/>
<stop offset="0.05" stop-color="#383433"/>
<stop offset="0.9" stop-color="#373332"/>
<stop offset="0.95" stop-color="#363130"/>
<stop offset="1" stop-color="#252221"/>
</linearGradient>
<linearGradient id="paint23_linear_352_233" x1="10.8616" y1="5.45996" x2="10.8616" y2="7.12065" gradientUnits="userSpaceOnUse">
<stop stop-color="#292525"/>
<stop offset="0.01" stop-color="#868584"/>
<stop offset="0.05" stop-color="#383433"/>
<stop offset="0.9" stop-color="#373332"/>
<stop offset="0.95" stop-color="#363130"/>
<stop offset="1" stop-color="#252221"/>
</linearGradient>
<linearGradient id="paint24_linear_352_233" x1="18.1228" y1="13.7655" x2="18.1228" y2="14.346" gradientUnits="userSpaceOnUse">
<stop stop-color="#C4C4C4"/>
<stop offset="0.15" stop-color="white"/>
<stop offset="0.25" stop-color="white"/>
<stop offset="0.44" stop-color="#DFDFDF"/>
<stop offset="0.6" stop-color="#C7C7C7"/>
<stop offset="0.8" stop-color="#A8A8A8"/>
<stop offset="0.97" stop-color="#999999"/>
</linearGradient>
<linearGradient id="paint25_linear_352_233" x1="19.3128" y1="8.8783" x2="19.3128" y2="9.85554" gradientUnits="userSpaceOnUse">
<stop stop-color="#C4C4C4"/>
<stop offset="0.15" stop-color="white"/>
<stop offset="0.25" stop-color="white"/>
<stop offset="0.44" stop-color="#DFDFDF"/>
<stop offset="0.6" stop-color="#C7C7C7"/>
<stop offset="0.8" stop-color="#A8A8A8"/>
<stop offset="0.97" stop-color="#999999"/>
</linearGradient>
<linearGradient id="paint26_linear_352_233" x1="19.3128" y1="11.5634" x2="19.3128" y2="12.5406" gradientUnits="userSpaceOnUse">
<stop stop-color="#C4C4C4"/>
<stop offset="0.15" stop-color="white"/>
<stop offset="0.25" stop-color="white"/>
<stop offset="0.44" stop-color="#DFDFDF"/>
<stop offset="0.6" stop-color="#C7C7C7"/>
<stop offset="0.8" stop-color="#A8A8A8"/>
<stop offset="0.97" stop-color="#999999"/>
</linearGradient>
<linearGradient id="paint27_linear_352_233" x1="19.7724" y1="9.326" x2="19.5234" y2="9.326" gradientUnits="userSpaceOnUse">
<stop stop-color="#C2C7C9"/>
<stop offset="0.03" stop-color="#A9AEAF"/>
<stop offset="0.2" stop-color="#B3B8B9"/>
<stop offset="0.31" stop-color="#BDC3C4"/>
<stop offset="0.48" stop-color="#D5DBDD"/>
<stop offset="0.75" stop-color="#F8FCFD"/>
<stop offset="0.85" stop-color="#F4FAFC"/>
<stop offset="1" stop-color="#BAC0C1"/>
</linearGradient>
<linearGradient id="paint28_linear_352_233" x1="19.7724" y1="12.0111" x2="19.5234" y2="12.0111" gradientUnits="userSpaceOnUse">
<stop stop-color="#C2C7C9"/>
<stop offset="0.03" stop-color="#A9AEAF"/>
<stop offset="0.2" stop-color="#B3B8B9"/>
<stop offset="0.31" stop-color="#BDC3C4"/>
<stop offset="0.48" stop-color="#D5DBDD"/>
<stop offset="0.75" stop-color="#F8FCFD"/>
<stop offset="0.85" stop-color="#F4FAFC"/>
<stop offset="1" stop-color="#BAC0C1"/>
</linearGradient>
</defs>
</svg>
