<svg width="16" height="16" viewBox="0 0 16 16" fill="none" xmlns="http://www.w3.org/2000/svg">
<rect width="16" height="16" rx="8" fill="#E2E2E2"/>
<rect x="4.22632" y="6.77344" width="7.54717" height="6.22642" fill="url(#paint0_linear_352_244)"/>
<rect x="5.73584" y="7.6543" width="4.46541" height="4.46541" fill="url(#paint1_linear_352_244)"/>
<path fill-rule="evenodd" clip-rule="evenodd" d="M8.00991 8.40918H9.00614L8.00991 9.42907L9.00614 10.449L6.93066 11.5538L8.00991 10.449L6.93066 9.42907L8.00991 8.40918Z" fill="#C65252"/>
<path d="M5.54712 3.4087C5.54712 3.32186 5.61751 3.25146 5.70435 3.25146C5.79119 3.25146 5.86158 3.32186 5.86158 3.4087V6.93071C5.86158 7.01755 5.79119 7.08794 5.70435 7.08794C5.61751 7.08794 5.54712 7.01755 5.54712 6.93071V3.4087Z" fill="url(#paint2_linear_352_244)"/>
<path d="M7.81128 3.4087C7.81128 3.32186 7.88167 3.25146 7.96851 3.25146C8.05535 3.25146 8.12574 3.32186 8.12574 3.4087V6.93071C8.12574 7.01755 8.05535 7.08794 7.96851 7.08794C7.88167 7.08794 7.81128 7.01755 7.81128 6.93071V3.4087Z" fill="url(#paint3_linear_352_244)"/>
<path d="M10.0752 3.4087C10.0752 3.32186 10.1456 3.25146 10.2324 3.25146C10.3193 3.25146 10.3897 3.32186 10.3897 3.4087V6.93071C10.3897 7.01755 10.3193 7.08794 10.2324 7.08794C10.1456 7.08794 10.0752 7.01755 10.0752 6.93071V3.4087Z" fill="url(#paint4_linear_352_244)"/>
<rect x="4.91821" y="6.14453" width="1.50943" height="0.377358" rx="0.188679" fill="url(#paint5_linear_352_244)"/>
<rect x="4.91821" y="5.76758" width="1.50943" height="0.377358" rx="0.188679" fill="url(#paint6_linear_352_244)"/>
<rect x="4.91821" y="5.38965" width="1.50943" height="0.377358" rx="0.188679" fill="url(#paint7_linear_352_244)"/>
<rect x="4.91821" y="5.0127" width="1.50943" height="0.377358" rx="0.188679" fill="url(#paint8_linear_352_244)"/>
<rect x="4.91821" y="4.63525" width="1.50943" height="0.377358" rx="0.188679" fill="url(#paint9_linear_352_244)"/>
<rect x="4.91821" y="4.25781" width="1.50943" height="0.377358" rx="0.188679" fill="url(#paint10_linear_352_244)"/>
<rect x="4.91821" y="3.88037" width="1.50943" height="0.377358" rx="0.188679" fill="url(#paint11_linear_352_244)"/>
<rect x="5.04395" y="3.50342" width="1.25786" height="0.377358" rx="0.188679" fill="url(#paint12_linear_352_244)"/>
<rect x="7.18213" y="6.14453" width="1.50943" height="0.377358" rx="0.188679" fill="url(#paint13_linear_352_244)"/>
<rect x="7.18213" y="5.76758" width="1.50943" height="0.377358" rx="0.188679" fill="url(#paint14_linear_352_244)"/>
<rect x="7.18213" y="5.38965" width="1.50943" height="0.377358" rx="0.188679" fill="url(#paint15_linear_352_244)"/>
<rect x="7.18213" y="5.0127" width="1.50943" height="0.377358" rx="0.188679" fill="url(#paint16_linear_352_244)"/>
<rect x="7.18213" y="4.63525" width="1.50943" height="0.377358" rx="0.188679" fill="url(#paint17_linear_352_244)"/>
<rect x="7.18213" y="4.25781" width="1.50943" height="0.377358" rx="0.188679" fill="url(#paint18_linear_352_244)"/>
<rect x="7.18213" y="3.88037" width="1.50943" height="0.377358" rx="0.188679" fill="url(#paint19_linear_352_244)"/>
<rect x="7.30786" y="3.50342" width="1.25786" height="0.377358" rx="0.188679" fill="url(#paint20_linear_352_244)"/>
<rect x="9.44653" y="6.14453" width="1.50943" height="0.377358" rx="0.188679" fill="url(#paint21_linear_352_244)"/>
<rect x="9.44653" y="5.76758" width="1.50943" height="0.377358" rx="0.188679" fill="url(#paint22_linear_352_244)"/>
<rect x="9.44653" y="5.38965" width="1.50943" height="0.377358" rx="0.188679" fill="url(#paint23_linear_352_244)"/>
<rect x="9.44653" y="5.0127" width="1.50943" height="0.377358" rx="0.188679" fill="url(#paint24_linear_352_244)"/>
<rect x="9.44653" y="4.63525" width="1.50943" height="0.377358" rx="0.188679" fill="url(#paint25_linear_352_244)"/>
<rect x="9.44653" y="4.25781" width="1.50943" height="0.377358" rx="0.188679" fill="url(#paint26_linear_352_244)"/>
<rect x="9.44653" y="3.88037" width="1.50943" height="0.377358" rx="0.188679" fill="url(#paint27_linear_352_244)"/>
<rect x="9.57227" y="3.50342" width="1.25786" height="0.377358" rx="0.188679" fill="url(#paint28_linear_352_244)"/>
<rect x="4.35205" y="3" width="7.16981" height="0.251572" fill="url(#paint29_linear_352_244)"/>
<defs>
<linearGradient id="paint0_linear_352_244" x1="7.9999" y1="6.68042" x2="7.9999" y2="13.5125" gradientUnits="userSpaceOnUse">
<stop stop-color="#C4C4C4"/>
<stop offset="0.15" stop-color="white"/>
<stop offset="0.25" stop-color="white"/>
<stop offset="0.44" stop-color="#DFDFDF"/>
<stop offset="0.6" stop-color="#C7C7C7"/>
<stop offset="0.8" stop-color="#A8A8A8"/>
<stop offset="0.97" stop-color="#999999"/>
</linearGradient>
<linearGradient id="paint1_linear_352_244" x1="7.96854" y1="7.6543" x2="7.96854" y2="12.1197" gradientUnits="userSpaceOnUse">
<stop stop-color="#E9E9E9"/>
<stop offset="1" stop-color="white"/>
</linearGradient>
<linearGradient id="paint2_linear_352_244" x1="5.70435" y1="3.25146" x2="5.70435" y2="7.08794" gradientUnits="userSpaceOnUse">
<stop stop-color="#AAAAAA"/>
<stop offset="0.188158" stop-color="#C1C1C1"/>
<stop offset="0.430354" stop-color="#848484"/>
<stop offset="0.721978" stop-color="#AAAAAA"/>
<stop offset="1" stop-color="#898989"/>
</linearGradient>
<linearGradient id="paint3_linear_352_244" x1="7.96851" y1="3.25146" x2="7.96851" y2="7.08794" gradientUnits="userSpaceOnUse">
<stop stop-color="#AAAAAA"/>
<stop offset="0.188158" stop-color="#C1C1C1"/>
<stop offset="0.430354" stop-color="#848484"/>
<stop offset="0.721978" stop-color="#AAAAAA"/>
<stop offset="1" stop-color="#898989"/>
</linearGradient>
<linearGradient id="paint4_linear_352_244" x1="10.2324" y1="3.25146" x2="10.2324" y2="7.08794" gradientUnits="userSpaceOnUse">
<stop stop-color="#AAAAAA"/>
<stop offset="0.188158" stop-color="#C1C1C1"/>
<stop offset="0.430354" stop-color="#848484"/>
<stop offset="0.721978" stop-color="#AAAAAA"/>
<stop offset="1" stop-color="#898989"/>
</linearGradient>
<linearGradient id="paint5_linear_352_244" x1="5.67293" y1="6.14453" x2="5.67293" y2="6.52189" gradientUnits="userSpaceOnUse">
<stop stop-color="#6CA3FF"/>
<stop offset="1" stop-color="#3D6AE4"/>
</linearGradient>
<linearGradient id="paint6_linear_352_244" x1="5.67293" y1="5.76758" x2="5.67293" y2="6.14494" gradientUnits="userSpaceOnUse">
<stop stop-color="#6CA3FF"/>
<stop offset="1" stop-color="#3D6AE4"/>
</linearGradient>
<linearGradient id="paint7_linear_352_244" x1="5.67293" y1="5.38965" x2="5.67293" y2="5.76701" gradientUnits="userSpaceOnUse">
<stop stop-color="#6CA3FF"/>
<stop offset="1" stop-color="#3D6AE4"/>
</linearGradient>
<linearGradient id="paint8_linear_352_244" x1="5.67293" y1="5.0127" x2="5.67293" y2="5.39005" gradientUnits="userSpaceOnUse">
<stop stop-color="#6CA3FF"/>
<stop offset="1" stop-color="#3D6AE4"/>
</linearGradient>
<linearGradient id="paint9_linear_352_244" x1="5.67293" y1="4.63525" x2="5.67293" y2="5.01261" gradientUnits="userSpaceOnUse">
<stop stop-color="#6CA3FF"/>
<stop offset="1" stop-color="#3D6AE4"/>
</linearGradient>
<linearGradient id="paint10_linear_352_244" x1="5.67293" y1="4.25781" x2="5.67293" y2="4.63517" gradientUnits="userSpaceOnUse">
<stop stop-color="#6CA3FF"/>
<stop offset="1" stop-color="#3D6AE4"/>
</linearGradient>
<linearGradient id="paint11_linear_352_244" x1="5.67293" y1="3.88037" x2="5.67293" y2="4.25773" gradientUnits="userSpaceOnUse">
<stop stop-color="#6CA3FF"/>
<stop offset="1" stop-color="#3D6AE4"/>
</linearGradient>
<linearGradient id="paint12_linear_352_244" x1="5.67288" y1="3.50342" x2="5.67288" y2="3.88078" gradientUnits="userSpaceOnUse">
<stop stop-color="#6CA3FF"/>
<stop offset="1" stop-color="#3D6AE4"/>
</linearGradient>
<linearGradient id="paint13_linear_352_244" x1="7.93685" y1="6.14453" x2="7.93685" y2="6.52189" gradientUnits="userSpaceOnUse">
<stop stop-color="#6CA3FF"/>
<stop offset="1" stop-color="#3D6AE4"/>
</linearGradient>
<linearGradient id="paint14_linear_352_244" x1="7.93685" y1="5.76758" x2="7.93685" y2="6.14494" gradientUnits="userSpaceOnUse">
<stop stop-color="#6CA3FF"/>
<stop offset="1" stop-color="#3D6AE4"/>
</linearGradient>
<linearGradient id="paint15_linear_352_244" x1="7.93685" y1="5.38965" x2="7.93685" y2="5.76701" gradientUnits="userSpaceOnUse">
<stop stop-color="#6CA3FF"/>
<stop offset="1" stop-color="#3D6AE4"/>
</linearGradient>
<linearGradient id="paint16_linear_352_244" x1="7.93685" y1="5.0127" x2="7.93685" y2="5.39005" gradientUnits="userSpaceOnUse">
<stop stop-color="#6CA3FF"/>
<stop offset="1" stop-color="#3D6AE4"/>
</linearGradient>
<linearGradient id="paint17_linear_352_244" x1="7.93685" y1="4.63525" x2="7.93685" y2="5.01261" gradientUnits="userSpaceOnUse">
<stop stop-color="#6CA3FF"/>
<stop offset="1" stop-color="#3D6AE4"/>
</linearGradient>
<linearGradient id="paint18_linear_352_244" x1="7.93685" y1="4.25781" x2="7.93685" y2="4.63517" gradientUnits="userSpaceOnUse">
<stop stop-color="#6CA3FF"/>
<stop offset="1" stop-color="#3D6AE4"/>
</linearGradient>
<linearGradient id="paint19_linear_352_244" x1="7.93685" y1="3.88037" x2="7.93685" y2="4.25773" gradientUnits="userSpaceOnUse">
<stop stop-color="#6CA3FF"/>
<stop offset="1" stop-color="#3D6AE4"/>
</linearGradient>
<linearGradient id="paint20_linear_352_244" x1="7.93679" y1="3.50342" x2="7.93679" y2="3.88078" gradientUnits="userSpaceOnUse">
<stop stop-color="#6CA3FF"/>
<stop offset="1" stop-color="#3D6AE4"/>
</linearGradient>
<linearGradient id="paint21_linear_352_244" x1="10.2013" y1="6.14453" x2="10.2013" y2="6.52189" gradientUnits="userSpaceOnUse">
<stop stop-color="#6CA3FF"/>
<stop offset="1" stop-color="#3D6AE4"/>
</linearGradient>
<linearGradient id="paint22_linear_352_244" x1="10.2013" y1="5.76758" x2="10.2013" y2="6.14494" gradientUnits="userSpaceOnUse">
<stop stop-color="#6CA3FF"/>
<stop offset="1" stop-color="#3D6AE4"/>
</linearGradient>
<linearGradient id="paint23_linear_352_244" x1="10.2013" y1="5.38965" x2="10.2013" y2="5.76701" gradientUnits="userSpaceOnUse">
<stop stop-color="#6CA3FF"/>
<stop offset="1" stop-color="#3D6AE4"/>
</linearGradient>
<linearGradient id="paint24_linear_352_244" x1="10.2013" y1="5.0127" x2="10.2013" y2="5.39005" gradientUnits="userSpaceOnUse">
<stop stop-color="#6CA3FF"/>
<stop offset="1" stop-color="#3D6AE4"/>
</linearGradient>
<linearGradient id="paint25_linear_352_244" x1="10.2013" y1="4.63525" x2="10.2013" y2="5.01261" gradientUnits="userSpaceOnUse">
<stop stop-color="#6CA3FF"/>
<stop offset="1" stop-color="#3D6AE4"/>
</linearGradient>
<linearGradient id="paint26_linear_352_244" x1="10.2013" y1="4.25781" x2="10.2013" y2="4.63517" gradientUnits="userSpaceOnUse">
<stop stop-color="#6CA3FF"/>
<stop offset="1" stop-color="#3D6AE4"/>
</linearGradient>
<linearGradient id="paint27_linear_352_244" x1="10.2013" y1="3.88037" x2="10.2013" y2="4.25773" gradientUnits="userSpaceOnUse">
<stop stop-color="#6CA3FF"/>
<stop offset="1" stop-color="#3D6AE4"/>
</linearGradient>
<linearGradient id="paint28_linear_352_244" x1="10.2012" y1="3.50342" x2="10.2012" y2="3.88078" gradientUnits="userSpaceOnUse">
<stop stop-color="#6CA3FF"/>
<stop offset="1" stop-color="#3D6AE4"/>
</linearGradient>
<linearGradient id="paint29_linear_352_244" x1="7.93696" y1="3" x2="7.93696" y2="3.25157" gradientUnits="userSpaceOnUse">
<stop offset="0.450794" stop-color="#818181"/>
<stop offset="0.542661" stop-color="#454545"/>
</linearGradient>
</defs>
</svg>
