<?xml version="1.0" standalone="no"?><!DOCTYPE svg PUBLIC "-//W3C//DTD SVG 1.1//EN" "http://www.w3.org/Graphics/SVG/1.1/DTD/svg11.dtd"><svg t="1741050401204" class="icon" width="240" height="240" viewBox="120 120 780 780" version="1.1" xmlns="http://www.w3.org/2000/svg" p-id="4686" xmlns:xlink="http://www.w3.org/1999/xlink"><path d="M85.333333 170.666667a85.333333 85.333333 0 0 1 85.333334-85.333334h213.333333a85.333333 85.333333 0 0 1 85.333333 85.333334v213.333333a85.333333 85.333333 0 0 1-85.333333 85.333333H170.666667a85.333333 85.333333 0 0 1-85.333334-85.333333V170.666667z m298.666667 0H170.666667v213.333333h213.333333V170.666667zM85.333333 640a85.333333 85.333333 0 0 1 85.333334-85.333333h213.333333a85.333333 85.333333 0 0 1 85.333333 85.333333v213.333333a85.333333 85.333333 0 0 1-85.333333 85.333334H170.666667a85.333333 85.333333 0 0 1-85.333334-85.333334v-213.333333z m298.666667 0H170.666667v213.333333h213.333333v-213.333333zM554.666667 170.666667a85.333333 85.333333 0 0 1 85.333333-85.333334h213.333333a85.333333 85.333333 0 0 1 85.333334 85.333334v213.333333a85.333333 85.333333 0 0 1-85.333334 85.333333h-213.333333a85.333333 85.333333 0 0 1-85.333333-85.333333V170.666667z m298.666666 0h-213.333333v213.333333h213.333333V170.666667zM554.666667 640a85.333333 85.333333 0 0 1 85.333333-85.333333h213.333333a85.333333 85.333333 0 0 1 85.333334 85.333333v213.333333a85.333333 85.333333 0 0 1-85.333334 85.333334h-213.333333a85.333333 85.333333 0 0 1-85.333333-85.333334v-213.333333z m298.666666 0h-213.333333v213.333333h213.333333v-213.333333z" p-id="4687"></path></svg>