<svg width="16" height="15" viewBox="0 0 16 15" xmlns="http://www.w3.org/2000/svg">
<path d="M10.0161 6.33304C9.91749 6.33304 9.81985 6.31362 9.72877 6.27587C9.63768 6.23812 9.55492 6.1828 9.48523 6.11305C9.41553 6.04331 9.36026 5.96052 9.32257 5.86941C9.28488 5.77829 9.26552 5.68065 9.26559 5.58205C9.26005 5.11289 9.0698 4.66483 8.73608 4.33502C8.40237 4.00522 7.95209 3.82026 7.4829 3.82026C7.01371 3.82026 6.56344 4.00522 6.22972 4.33502C5.89601 4.66483 5.70575 5.11289 5.70022 5.58205C5.69665 5.77876 5.61599 5.96622 5.47561 6.10407C5.33523 6.24192 5.14635 6.31916 4.9496 6.31916C4.75285 6.31916 4.56396 6.24192 4.42358 6.10407C4.2832 5.96622 4.20255 5.77876 4.19897 5.58205C4.19897 3.76851 5.66924 2.29849 7.48278 2.29849C9.29632 2.29849 10.7668 3.76851 10.7668 5.5823C10.7668 5.68089 10.7473 5.7785 10.7096 5.86958C10.6718 5.96065 10.6165 6.04339 10.5468 6.11308C10.477 6.18277 10.3943 6.23805 10.3032 6.27574C10.2121 6.31344 10.1144 6.33283 10.0158 6.3328L10.0161 6.33304Z"/>
<path d="M12.3149 6.33306C12.2163 6.33309 12.1187 6.31368 12.0275 6.27595C11.9364 6.23822 11.8536 6.1829 11.7839 6.11315C11.7142 6.04341 11.6589 5.9606 11.6212 5.86947C11.5835 5.77835 11.5641 5.68068 11.5642 5.58206C11.5642 3.32809 9.73701 1.50091 7.48279 1.50091C5.22881 1.50091 3.40139 3.32809 3.40139 5.58231C3.39782 5.77903 3.31716 5.96648 3.17678 6.10433C3.0364 6.24218 2.84752 6.31942 2.65077 6.31942C2.45402 6.31942 2.26514 6.24218 2.12476 6.10433C1.98438 5.96648 1.90372 5.77903 1.90015 5.58231C1.90023 4.10176 2.48844 2.68188 3.53538 1.635C4.58232 0.588124 6.00224 0 7.48279 0C8.96334 0 10.3833 0.588124 11.4302 1.635C12.4771 2.68188 13.0653 4.10176 13.0654 5.58231C13.0654 5.78138 12.9862 5.97227 12.8455 6.11301C12.7047 6.25375 12.5137 6.33281 12.3147 6.33281L12.3149 6.33306Z"/>
<path d="M14.0738 8.9132H8.25673V6.33305C8.25673 6.13397 8.17764 5.94305 8.03687 5.80228C7.8961 5.66151 7.70518 5.58243 7.5061 5.58243C7.30703 5.58243 7.1161 5.66151 6.97533 5.80228C6.83456 5.94305 6.75548 6.13397 6.75548 6.33305V8.9132H0.938371C0.815154 8.91317 0.693138 8.93741 0.579291 8.98454C0.465444 9.03167 0.361997 9.10077 0.274858 9.18788C0.187719 9.275 0.118595 9.37843 0.0714341 9.49226C0.0242735 9.6061 -1.72534e-09 9.72811 0 9.85132V14.05C5.19972e-09 14.2988 0.0988639 14.5375 0.274843 14.7135C0.450821 14.8895 0.6895 14.9883 0.938371 14.9883H14.0738C14.3227 14.9883 14.5614 14.8895 14.7374 14.7135C14.9133 14.5375 15.0122 14.2988 15.0122 14.05V9.85132C15.0122 9.72811 14.9879 9.6061 14.9408 9.49226C14.8936 9.37843 14.8245 9.275 14.7374 9.18788C14.6502 9.10077 14.5468 9.03167 14.4329 8.98454C14.3191 8.93741 14.1971 8.91317 14.0738 8.9132ZM2.31445 12.7011C2.21589 12.7011 2.1183 12.6817 2.02725 12.644C1.93619 12.6063 1.85346 12.551 1.78377 12.4813C1.71408 12.4116 1.6588 12.3289 1.62108 12.2378C1.58336 12.1468 1.56395 12.0492 1.56395 11.9506C1.56395 11.8521 1.58336 11.7545 1.62108 11.6634C1.6588 11.5724 1.71408 11.4896 1.78377 11.42C1.85346 11.3503 1.93619 11.295 2.02725 11.2573C2.1183 11.2196 2.21589 11.2001 2.31445 11.2001C2.5135 11.2001 2.70439 11.2792 2.84513 11.42C2.98588 11.5607 3.06495 11.7516 3.06495 11.9506C3.06495 12.1497 2.98588 12.3406 2.84513 12.4813C2.70439 12.6221 2.5135 12.7011 2.31445 12.7011ZM4.589 12.7011C4.49044 12.7011 4.39285 12.6817 4.30179 12.644C4.21074 12.6063 4.12801 12.551 4.05831 12.4813C3.98862 12.4116 3.93334 12.3289 3.89563 12.2378C3.85791 12.1468 3.8385 12.0492 3.8385 11.9506C3.8385 11.8521 3.85791 11.7545 3.89563 11.6634C3.93334 11.5724 3.98862 11.4896 4.05831 11.42C4.12801 11.3503 4.21074 11.295 4.30179 11.2573C4.39285 11.2196 4.49044 11.2001 4.589 11.2001C4.78804 11.2001 4.97893 11.2792 5.11968 11.42C5.26043 11.5607 5.3395 11.7516 5.3395 11.9506C5.3395 12.1497 5.26043 12.3406 5.11968 12.4813C4.97893 12.6221 4.78804 12.7011 4.589 12.7011Z"/>
</svg>
