<?xml version="1.0" standalone="no"?><!DOCTYPE svg PUBLIC "-//W3C//DTD SVG 1.1//EN" "http://www.w3.org/Graphics/SVG/1.1/DTD/svg11.dtd"><svg t="1723451520612" class="icon" viewBox="0 0 1024 1024" version="1.1" xmlns="http://www.w3.org/2000/svg" p-id="6729" xmlns:xlink="http://www.w3.org/1999/xlink" width="200" height="200"><path d="M712.817778 853.333333H631.466667l-9.671111-17.635555H402.204444L392.533333 853.333333H311.182222a27.875556 27.875556 0 1 0 0 56.888889h404.48a27.875556 27.875556 0 0 0 2.844445-56.888889z m165.546666-734.435555H145.635556a66.56 66.56 0 0 0-73.386667 56.888889 109.226667 109.226667 0 0 0 0 13.653333v533.617778a65.991111 65.991111 0 0 0 56.888889 72.248889h749.226666a66.56 66.56 0 0 0 73.386667-56.888889V191.715556a66.56 66.56 0 0 0-56.888889-72.817778zM739.555556 411.875556l-153.6 170.666666a35.271111 35.271111 0 0 1-48.355556 2.844445l-113.777778-95.573334L341.333333 580.835556a38.115556 38.115556 0 0 1-51.768889 0 31.857778 31.857778 0 0 1 0-44.942223l113.777778-113.777777a33.564444 33.564444 0 0 1 45.511111 0l110.364445 96.142222 126.862222-142.222222a36.408889 36.408889 0 0 1 49.493333-3.982223 27.875556 27.875556 0 0 1 5.688889 39.253334z" fill="#848484" p-id="6730"></path></svg>