<?xml version="1.0" standalone="no"?><!DOCTYPE svg PUBLIC "-//W3C//DTD SVG 1.1//EN" "http://www.w3.org/Graphics/SVG/1.1/DTD/svg11.dtd"><svg t="1740998411111" class="icon" width="240" height="240" viewBox="120 120 780 780" version="1.1" xmlns="http://www.w3.org/2000/svg" p-id="14370" xmlns:xlink="http://www.w3.org/1999/xlink"><path d="M213.333333 469.333333a42.666667 42.666667 0 1 0 0 85.333334 42.666667 42.666667 0 0 0 0-85.333334z m-128 42.666667a128 128 0 1 1 256 0 128 128 0 0 1-256 0zM810.666667 170.666667a42.666667 42.666667 0 1 0 0 85.333333 42.666667 42.666667 0 0 0 0-85.333333z m-128 42.666666a128 128 0 1 1 256 0 128 128 0 0 1-256 0zM810.666667 469.333333a42.666667 42.666667 0 1 0 0 85.333334 42.666667 42.666667 0 0 0 0-85.333334z m-128 42.666667a128 128 0 1 1 256 0 128 128 0 0 1-256 0zM810.666667 768a42.666667 42.666667 0 1 0 0 85.333333 42.666667 42.666667 0 0 0 0-85.333333z m-128 42.666667a128 128 0 1 1 256 0 128 128 0 0 1-256 0z" p-id="14371"></path><path d="M426.666667 213.333333a42.666667 42.666667 0 0 1 42.666666-42.666666h256a42.666667 42.666667 0 1 1 0 85.333333h-213.333333v512h213.333333a42.666667 42.666667 0 1 1 0 85.333333h-256a42.666667 42.666667 0 0 1-42.666666-42.666666V213.333333z" p-id="14372"></path><path d="M256 512a42.666667 42.666667 0 0 1 42.666667-42.666667h426.666666a42.666667 42.666667 0 1 1 0 85.333334H298.666667a42.666667 42.666667 0 0 1-42.666667-42.666667z" p-id="14373"></path></svg>