<?xml version="1.0" standalone="no"?><!DOCTYPE svg PUBLIC "-//W3C//DTD SVG 1.1//EN" "http://www.w3.org/Graphics/SVG/1.1/DTD/svg11.dtd"><svg t="1741050874870" class="icon" width="240" height="240" viewBox="120 120 780 780" version="1.1" xmlns="http://www.w3.org/2000/svg" p-id="5112" xmlns:xlink="http://www.w3.org/1999/xlink"><path d="M320 128a42.666667 42.666667 0 0 1 42.666667-42.666667h298.666666a42.666667 42.666667 0 0 1 42.666667 42.666667v192a42.666667 42.666667 0 0 1-42.666667 42.666667H554.666667V469.333333h192a42.666667 42.666667 0 0 1 42.666666 42.666667v149.333333H896a42.666667 42.666667 0 0 1 42.666667 42.666667V896a42.666667 42.666667 0 0 1-42.666667 42.666667h-298.666667a42.666667 42.666667 0 0 1-42.666666-42.666667v-192a42.666667 42.666667 0 0 1 42.666666-42.666667h106.666667V554.666667h-384v106.666666H426.666667a42.666667 42.666667 0 0 1 42.666666 42.666667V896a42.666667 42.666667 0 0 1-42.666666 42.666667H128a42.666667 42.666667 0 0 1-42.666667-42.666667v-192a42.666667 42.666667 0 0 1 42.666667-42.666667h106.666667V512a42.666667 42.666667 0 0 1 42.666666-42.666667H469.333333V362.666667H362.666667a42.666667 42.666667 0 0 1-42.666667-42.666667V128zM170.666667 746.666667V853.333333h213.333333v-106.666666H170.666667z m469.333333 0V853.333333h213.333333v-106.666666h-213.333333zM405.333333 170.666667v106.666666h213.333334V170.666667h-213.333334z" p-id="5113"></path></svg>