<svg width="12" height="12" viewBox="0 0 12 12" xmlns="http://www.w3.org/2000/svg">
<path d="M10 6H11C11.6667 6 12 6.33333 12 7V11C12 11.6667 11.6667 12 11 12H10C9.33333 12 9 11.6667 9 11V7C9 6.33333 9.33333 6 10 6Z"/>
<path d="M5.33333 0H6.66667C7.55556 0 8 0.352941 8 1.05882V10.9412C8 11.6471 7.55556 12 6.66667 12H5.33333C4.44444 12 4 11.6471 4 10.9412V1.05882C4 0.352941 4.44444 0 5.33333 0Z"/>
<path d="M1 4H2C2.66667 4 3 4.33333 3 5V11C3 11.6667 2.66667 12 2 12H1C0.333333 12 0 11.6667 0 11V5C0 4.33333 0.333333 4 1 4Z"/>
</svg>
