<?xml version="1.0" standalone="no"?><!DOCTYPE svg PUBLIC "-//W3C//DTD SVG 1.1//EN" "http://www.w3.org/Graphics/SVG/1.1/DTD/svg11.dtd"><svg t="1723688771021" class="icon" viewBox="0 0 1024 1024" version="1.1" xmlns="http://www.w3.org/2000/svg" p-id="4286" xmlns:xlink="http://www.w3.org/1999/xlink" width="200" height="200"><path d="M937.984 885.76c-10.752 28.16-13.312 87.04-72.704 87.04h-657.408c-48.64 0-64.512-41.984-70.144-87.04L51.2 306.688h54.272l99.328 614.912h665.6l99.328-614.912H1024l-86.016 579.072z m-168.96-117.248h-463.872c-28.672 0-49.664-25.6-49.664-54.272V105.472c0-31.232 23.552-54.272 49.664-54.272h466.432c26.112 0 49.664 23.04 47.104 54.272v608.768c0 31.232-23.552 54.272-49.664 54.272z m-461.824-205.312l460.288-3.584 0.512-47.616v-102.4h-460.8v153.6z m0.512-455.168v97.792l460.288-1.024 1.024-96.768h-461.312z m460.288 147.968h-460.8v102.4h460.8l1.024 25.6-1.024-128z m-0.512 354.816h-459.776v100.864h461.824l-2.048-100.864z" p-id="4287"></path></svg>