<?xml version="1.0" standalone="no"?><!DOCTYPE svg PUBLIC "-//W3C//DTD SVG 1.1//EN" "http://www.w3.org/Graphics/SVG/1.1/DTD/svg11.dtd"><svg t="1723450863100" class="icon" viewBox="0 0 1024 1024" version="1.1" xmlns="http://www.w3.org/2000/svg" p-id="8631" xmlns:xlink="http://www.w3.org/1999/xlink" width="200" height="200"><path d="M892.342857 51.2C804.571429 29.257143 636.342857 0 512 0S219.428571 29.257143 131.657143 51.2c-36.571429 7.314286-58.514286 36.571429-58.514286 73.142857V731.428571c0 29.257143 14.628571 51.2 36.571429 65.828572l365.714285 212.114286c21.942857 14.628571 51.2 14.628571 73.142858 0l365.714285-212.114286c21.942857-14.628571 36.571429-36.571429 36.571429-65.828572V124.342857c0-36.571429-21.942857-65.828571-58.514286-73.142857zM643.657143 614.4L512 519.314286 380.342857 614.4l51.2-153.6-131.657143-87.771429h160.914286L512 219.428571l51.2 153.6h160.914286L592.457143 468.114286l51.2 146.285714z" p-id="8632"></path></svg>