<svg width="14" height="15" viewBox="0 0 14 15" xmlns="http://www.w3.org/2000/svg">
<path fill-rule="evenodd" clip-rule="evenodd" d="M6.50827 0C6.9192 0.321875 9.77077 2.4375 12.863 1.57031C12.863 1.57031 13.463 7.68906 12.2911 10.1734C11.1911 12.5063 7.01608 14.5063 6.50827 14.7438C6.00045 14.5063 1.82545 12.5047 0.725453 10.1734C-0.446422 7.68906 0.153578 1.57031 0.153578 1.57031C3.24577 2.4375 6.09733 0.323438 6.50827 0ZM9.78791 10.1453C9.40197 10.0063 9.04728 9.82032 8.71916 9.58595C8.98322 9.27501 9.17541 8.95626 9.29884 8.62657C9.45822 8.19532 9.53791 7.6922 9.53791 7.12188C9.53791 6.04376 9.25041 5.2047 8.67697 4.6047C8.10353 4.00626 7.32697 3.70626 6.34728 3.70626C5.35822 3.70626 4.57541 4.0047 3.99884 4.6047C3.42228 5.2047 3.13322 6.04376 3.13322 7.12188C3.13322 8.20313 3.42072 9.0422 3.99572 9.64063C4.57072 10.2391 5.36603 10.5375 6.38166 10.5375C6.90666 10.5375 7.38634 10.4422 7.81916 10.2531C8.36916 10.6234 8.66447 10.8188 8.70666 10.8391C8.89884 10.9453 9.09572 11.0281 9.29728 11.0875L9.78791 10.1453ZM8.03166 8.10313C7.94572 8.38751 7.81759 8.63126 7.64572 8.83282C7.24572 8.53282 6.82697 8.30626 6.38947 8.15782L6.01603 8.91876C6.29572 9.01719 6.57072 9.15626 6.84103 9.33282C6.66916 9.39688 6.48791 9.42813 6.29572 9.42813C5.77853 9.42813 5.35041 9.23594 5.01291 8.85313C4.67384 8.47032 4.50509 7.8922 4.50509 7.12032C4.50509 6.35938 4.67384 5.79063 5.01134 5.41095C5.35041 5.03282 5.79103 4.84376 6.33478 4.84376C6.87853 4.84376 7.31916 5.03282 7.65509 5.40938C7.99103 5.78751 8.15978 6.35782 8.15978 7.12032C8.15978 7.49063 8.11759 7.81719 8.03166 8.10313Z"/>
</svg>
