<?xml version="1.0" standalone="no"?><!DOCTYPE svg PUBLIC "-//W3C//DTD SVG 1.1//EN" "http://www.w3.org/Graphics/SVG/1.1/DTD/svg11.dtd"><svg t="1741050637633" class="icon" width="240" height="240" viewBox="120 120 780 780" version="1.1" xmlns="http://www.w3.org/2000/svg" p-id="4970" xmlns:xlink="http://www.w3.org/1999/xlink"><path d="M338.005333 117.76A425.514667 425.514667 0 0 1 501.333333 85.333333a426.026667 426.026667 0 0 1 341.333334 170.624V170.666667a42.666667 42.666667 0 1 1 85.333333 0v341.333333a42.666667 42.666667 0 1 1-85.333333 0A341.333333 341.333333 0 0 0 217.472 322.389333a42.666667 42.666667 0 0 1-70.912-47.488A428.544 428.544 0 0 1 338.005333 117.76zM117.333333 469.333333a42.666667 42.666667 0 0 1 42.666667 42.666667 341.333333 341.333333 0 0 0 625.194667 189.610667 42.666667 42.666667 0 1 1 70.912 47.488 428.8 428.8 0 0 1-191.445334 157.184c-50.346667 20.906667-105.557333 32.384-163.328 32.384a426.026667 426.026667 0 0 1-341.333333-170.624V853.333333a42.666667 42.666667 0 1 1-85.333333 0v-341.333333a42.666667 42.666667 0 0 1 42.666666-42.666667z" p-id="4971"></path></svg>