<?xml version="1.0" standalone="no"?><!DOCTYPE svg PUBLIC "-//W3C//DTD SVG 1.1//EN" "http://www.w3.org/Graphics/SVG/1.1/DTD/svg11.dtd"><svg t="1725941102475" class="icon" viewBox="0 0 1024 1024" version="1.1" xmlns="http://www.w3.org/2000/svg" p-id="35945" xmlns:xlink="http://www.w3.org/1999/xlink" width="200" height="200"><path d="M886.016 139.776A65.728 65.728 0 0 0 841.6 122.88h-4.672c-0.96 0-11.392 0.96-27.456 0.96-27.392 0-79.36-1.92-129.344-14.08-64.32-14.976-138.88-85.376-160.64-99.392A69.12 69.12 0 0 0 483.52 0a71.68 71.68 0 0 0-35.84 10.368c-2.816 1.792-80.256 81.536-155.84 99.392-50.112 12.16-104 14.08-130.432 14.08-16.96 0-27.392-0.96-28.288-0.96h-3.776c-17.024 0-32.128 5.632-44.416 16.896a59.776 59.776 0 0 0-20.736 45.056V340.48c0 574.08 392.064 648.064 408.128 650.88 3.84 0.96 7.552 0.96 11.328 0.96 3.712 0 7.616 0 11.328-0.896 16.96-2.88 410.88-76.928 410.88-650.88V184.768a62.592 62.592 0 0 0-19.776-45.056zM740.544 362.112L469.312 622.72c-1.92 2.88-3.712 5.696-6.592 7.552a40.256 40.256 0 0 1-28.352 11.2 44.16 44.16 0 0 1-29.312-11.2 22.784 22.784 0 0 1-5.632-7.552L254.016 483.008a37.12 37.12 0 0 1 0-53.376 40.128 40.128 0 0 1 55.68 0l124.8 119.04L684.8 308.608a40.128 40.128 0 0 1 55.68 0 35.776 35.776 0 0 1 0 53.504z" p-id="35946"></path></svg>