<svg width="14" height="12" viewBox="0 0 14 12" fill="none" xmlns="http://www.w3.org/2000/svg">
<path d="M0.777823 0C0.348269 0 4.75519e-05 0.358172 4.75519e-05 0.8C4.75519e-05 1.24183 0.348269 1.6 0.777823 1.6H13.2222C13.6518 1.6 14 1.24183 14 0.8C14 0.358172 13.6518 0 13.2222 0H0.777823Z" fill="#515972"/>
<path d="M0.00390572 6.08019C-0.0185836 5.84958 0.0560482 5.61085 0.227801 5.43419L2.42767 3.17143C2.73141 2.85901 3.22387 2.859 3.52761 3.17142C3.83135 3.48384 3.83135 3.99037 3.52762 4.30279L2.65535 5.2H13.2222C13.6518 5.2 14 5.55817 14 6C14 6.44183 13.6518 6.8 13.2222 6.8H2.6556L3.52762 7.69695C3.83135 8.00937 3.83135 8.5159 3.52761 8.82832C3.22387 9.14074 2.73141 9.14073 2.42767 8.82831L0.234521 6.57246C0.210473 6.54831 0.187941 6.52257 0.167085 6.49541C0.123551 6.4388 0.0885239 6.37753 0.0620044 6.31342C0.0318233 6.24059 0.011842 6.16221 0.00390572 6.08019Z" fill="#515972"/>
<path d="M4.75519e-05 11.2C4.75519e-05 10.7582 0.348269 10.4 0.777823 10.4H13.2222C13.6518 10.4 14 10.7582 14 11.2C14 11.6418 13.6518 12 13.2222 12H0.777823C0.348269 12 4.75519e-05 11.6418 4.75519e-05 11.2Z" fill="#515972"/>
</svg>
