<svg width="14" height="13" viewBox="0 0 14 13" xmlns="http://www.w3.org/2000/svg">
<path fill-rule="evenodd" clip-rule="evenodd" d="M8.51484 1.6365H5.48416V3.15039H8.51484V1.6365ZM4.34766 1.25767V3.15039H1.93848C1.3862 3.15039 0.938483 3.59811 0.938483 4.15039V5.93874C0.938483 6.49102 1.3862 6.93874 1.93848 6.93874H5.4845V6.42384C5.4845 5.87156 5.93222 5.42384 6.4845 5.42384H7.51518C8.06746 5.42384 8.51518 5.87156 8.51518 6.42384V6.93874H12.0612C12.6135 6.93874 13.0612 6.49102 13.0612 5.93874V4.15039C13.0612 3.59811 12.6135 3.15039 12.0612 3.15039H9.65134V1.25767C9.65134 0.83922 9.31212 0.5 8.89367 0.5H5.10533C4.68688 0.5 4.34766 0.83922 4.34766 1.25767ZM5.4845 7.69727H1.93848C1.38619 7.69727 0.938477 8.14498 0.938477 8.69727V12.0009C0.938477 12.5532 1.38619 13.0009 1.93848 13.0009H12.0612C12.6135 13.0009 13.0612 12.5532 13.0612 12.0009V8.69727C13.0612 8.14498 12.6135 7.69727 12.0612 7.69727H8.51518V8.96986C8.51518 9.52214 8.06746 9.96986 7.51518 9.96986H6.4845C5.93221 9.96986 5.4845 9.52214 5.4845 8.96986V7.69727ZM6.99986 6.18164C6.58141 6.18164 6.24219 6.52086 6.24219 6.93931V8.45465C6.24219 8.8731 6.58141 9.21232 6.99986 9.21232C7.41831 9.21232 7.75753 8.8731 7.75753 8.45465V6.93931C7.75753 6.52086 7.41831 6.18164 6.99986 6.18164Z"/>
</svg>
