<?xml version="1.0" standalone="no"?><!DOCTYPE svg PUBLIC "-//W3C//DTD SVG 1.1//EN" "http://www.w3.org/Graphics/SVG/1.1/DTD/svg11.dtd"><svg t="1750321155542" class="icon" viewBox="0 0 1024 1024" version="1.1" xmlns="http://www.w3.org/2000/svg" p-id="3352" xmlns:xlink="http://www.w3.org/1999/xlink" width="198" height="198"><path d="M480.725333 329.472A113.194667 113.194667 0 0 0 397.226667 412.928c-10.410667 41.728 0 83.413333 31.274666 114.730667 31.317333 31.274667 73.045333 41.685333 114.773334 31.274666a113.194667 113.194667 0 0 0 83.413333-83.456c10.410667-41.685333 0-83.413333-31.274667-114.688-31.317333-31.317333-73.045333-41.728-114.773333-31.317333z" fill="#3370FF" p-id="3353"></path><path d="M762.325333 913.536H272.085333c-10.410667 0-26.026667 5.205333-31.274666 15.658667a44.544 44.544 0 0 0 0 36.48c5.248 10.453333 15.658667 15.658667 31.317333 15.658666h490.197333c10.410667 0 15.616-5.205333 26.026667-10.410666a39.850667 39.850667 0 0 0 10.453333-26.112c-5.205333-15.616-15.616-31.274667-36.48-31.274667z" fill="#00D6BA" p-id="3354"></path><path d="M934.4 42.666667H89.6C63.530667 42.666667 42.666667 63.530667 42.666667 89.6v709.205333c0 26.069333 20.864 46.933333 46.933333 46.933334h844.8c26.069333 0 46.933333-20.864 46.933333-46.933334V89.6c0-26.069333-20.864-46.933333-46.933333-46.933333z m-125.141333 443.264a53.418667 53.418667 0 0 1-26.069334 31.274666h-10.453333c-46.933333 15.658667-78.208 67.84-67.797333 114.773334l5.205333 10.410666c5.248 15.616 0 31.274667-10.410667 36.48-10.410667 10.453333-20.864 15.658667-36.522666 20.864-10.410667 5.205333-26.026667 15.658667-36.48 20.864a40.533333 40.533333 0 0 1-41.728-10.453333l-5.205334-5.205333c-36.522667-36.48-93.866667-36.48-135.594666 0l-5.205334 5.205333c-10.453333 10.453333-26.069333 15.658667-36.522666 10.453333-10.410667-5.205333-26.026667-10.453333-36.48-20.864-10.453333-5.205333-26.069333-15.658667-36.522667-20.864-10.410667-10.410667-15.616-26.069333-10.410667-36.48l5.205334-10.453333c5.205333-52.138667-20.864-99.072-73.002667-114.730667h-10.453333a53.418667 53.418667 0 0 1-26.026667-31.274666V402.474667c5.205333-15.616 15.616-26.026667 26.026667-31.274667h10.453333c52.138667-15.658667 78.208-62.592 67.797333-114.730667l-5.205333-10.410666c-5.248-15.658667 0-31.317333 10.410667-36.522667 15.658667-10.410667 26.069333-15.658667 36.522666-26.069333 10.410667-5.205333 26.026667-15.658667 36.48-20.864 15.658667-5.205333 26.069333 0 41.728 10.453333l5.205334 5.205333c36.522667 36.48 93.866667 36.48 135.594666 0l5.205334-5.205333a40.533333 40.533333 0 0 1 41.728-10.453333c10.410667 5.205333 26.069333 10.453333 36.48 20.864 10.453333 5.205333 26.112 15.658667 36.522666 20.864 10.410667 10.410667 15.658667 26.069333 10.410667 36.48l-5.205333 10.453333c-10.410667 57.344 15.658667 104.277333 67.84 119.936h10.410666c15.616 5.205333 26.026667 15.658667 26.026667 31.274667v83.456z" fill="#3370FF" p-id="3355"></path></svg>